<?xml version="1.0" standalone="no"?>
<!DOCTYPE svg PUBLIC "-//W3C//DTD SVG 20010904//EN"
 "http://www.w3.org/TR/2001/REC-SVG-20010904/DTD/svg10.dtd">
<svg version="1.0" xmlns="http://www.w3.org/2000/svg"
 width="512.000000pt" height="512.000000pt" viewBox="0 0 512.000000 512.000000"
 preserveAspectRatio="xMidYMid meet">
<metadata>
Created by potrace 1.14, written by Peter Selinger 2001-2017
</metadata>
<g transform="translate(0.000000,512.000000) scale(0.100000,-0.100000)"
fill="#000000" stroke="none">
<path d="M0 2560 l0 -2560 2560 0 2560 0 0 2560 0 2560 -2560 0 -2560 0 0
-2560z m3075 1808 c-7 -18 -378 -845 -824 -1838 l-810 -1805 -435 -3 -435 -2
18 42 c10 24 375 837 811 1808 436 971 799 1780 806 1798 l14 32 435 0 434 0
-14 -32z m1470 0 c-7 -18 -378 -845 -824 -1838 l-810 -1805 -435 -3 -435 -2
18 42 c10 24 375 837 811 1808 436 971 799 1780 806 1798 l14 32 435 0 434 0
-14 -32z"/>
</g>
</svg>
