<?xml version="1.0" standalone="no"?>
<!DOCTYPE svg PUBLIC "-//W3C//DTD SVG 20010904//EN"
 "http://www.w3.org/TR/2001/REC-SVG-20010904/DTD/svg10.dtd">
<svg version="1.0" xmlns="http://www.w3.org/2000/svg"
 width="390.000000pt" height="390.000000pt" viewBox="0 0 390.000000 390.000000"
 preserveAspectRatio="xMidYMid meet">
<metadata>
Created by potrace 1.14, written by Peter Selinger 2001-2017
</metadata>
<g transform="translate(0.000000,390.000000) scale(0.100000,-0.100000)"
fill="#000000" stroke="none">
<path d="M1495 3890 c-3 -5 -13 -6 -22 -3 -12 5 -15 2 -10 -10 3 -9 0 -20 -7
-24 -7 -5 -21 -25 -31 -46 -10 -22 -27 -40 -40 -43 -13 -3 -26 -12 -29 -21 -3
-8 -10 -11 -16 -8 -5 3 -10 2 -10 -3 0 -5 -11 -8 -25 -7 -14 2 -25 -1 -25 -6
0 -5 -12 -15 -27 -22 -16 -6 -31 -16 -34 -21 -4 -4 -18 -10 -33 -11 -14 -2
-45 -7 -68 -11 -24 -4 -82 -7 -129 -5 -51 2 -95 -2 -108 -8 -11 -7 -21 -8 -21
-3 0 32 -321 33 -370 2 -13 -9 -13 -11 -1 -19 9 -6 22 -6 31 -1 15 8 63 1 103
-15 19 -8 23 -25 6 -25 -5 0 -7 -5 -3 -12 4 -6 3 -8 -3 -5 -5 3 -31 -5 -58
-18 -27 -14 -56 -25 -66 -25 -10 0 -20 -4 -23 -9 -5 -8 -86 -4 -95 5 -10 10
-9 39 1 51 40 49 -74 -8 -121 -60 -61 -66 -89 -147 -52 -147 28 0 52 11 45 21
-3 5 4 9 15 9 18 0 19 -3 10 -26 -5 -15 -7 -29 -4 -32 3 -3 5 0 5 8 0 10 3 10
15 0 17 -14 10 -34 -10 -26 -7 2 -12 -3 -11 -12 0 -10 -5 -16 -13 -14 -11 2
-11 -2 2 -21 11 -18 14 -39 11 -77 -4 -46 -3 -52 10 -41 10 9 16 9 21 1 11
-18 49 -29 57 -17 4 7 12 6 23 -3 14 -12 18 -12 26 1 5 8 9 10 9 5 0 -5 6 -4
13 1 23 19 77 2 77 -25 0 -26 39 -61 49 -44 5 9 12 9 27 -2 22 -17 24 -15 -39
-44 -31 -14 -45 -26 -41 -34 5 -8 2 -9 -9 -5 -9 3 -16 3 -16 -1 3 -20 -3 -30
-18 -28 -10 0 -17 -5 -15 -12 1 -8 -2 -11 -7 -8 -5 4 -16 -2 -23 -12 -7 -10
-20 -21 -29 -24 -16 -6 -47 -63 -54 -99 -2 -11 -7 -28 -10 -38 -3 -9 4 -34 15
-56 25 -49 25 -60 0 -78 -18 -12 -18 -15 -4 -35 15 -21 41 -32 29 -12 -19 31
51 -8 108 -61 18 -17 18 -17 -5 -25 -12 -4 -29 -7 -35 -6 -7 2 -13 -7 -13 -18
0 -12 -4 -18 -10 -15 -5 3 -10 2 -10 -4 0 -5 -3 -16 -6 -24 -3 -8 2 -17 11
-21 10 -4 14 -2 9 6 -4 7 -3 8 4 4 7 -4 12 -13 12 -21 0 -7 3 -15 8 -18 4 -2
2 -3 -5 -1 -6 1 -13 -7 -16 -18 -4 -14 -11 -19 -21 -15 -12 5 -16 -1 -16 -24
0 -17 3 -28 8 -26 4 3 8 -13 9 -36 1 -30 8 -47 24 -60 19 -16 21 -21 11 -38
-9 -14 -9 -19 -1 -19 8 0 8 -4 -1 -15 -7 -8 -16 -12 -21 -9 -5 3 -6 -1 -3 -9
3 -9 20 -13 50 -13 25 1 50 -5 56 -11 6 -7 19 -13 28 -13 27 0 50 -11 50 -24
0 -6 -27 -30 -59 -54 -33 -24 -65 -50 -72 -58 -6 -8 -24 -14 -39 -14 -16 0
-30 -7 -34 -15 -3 -9 -14 -15 -23 -13 -12 2 -18 -3 -17 -14 1 -9 -5 -19 -12
-22 -17 -6 -18 8 -4 35 6 10 20 19 31 19 11 0 17 5 14 10 -4 6 -10 8 -15 5 -4
-3 -10 1 -13 7 -6 16 -34 -8 -39 -32 -2 -8 -9 -20 -16 -25 -7 -6 -15 -19 -16
-30 -2 -13 -10 -19 -20 -17 -11 2 -20 -5 -23 -17 -3 -12 -9 -21 -13 -21 -4 0
-5 -11 -2 -25 2 -14 9 -25 14 -25 5 0 6 -5 3 -10 -4 -6 -10 -8 -15 -5 -4 3 -6
-5 -3 -16 4 -14 0 -25 -11 -31 -18 -10 -22 -48 -5 -48 6 0 9 -7 6 -15 -4 -8
-2 -17 3 -20 9 -6 14 7 11 30 0 6 13 16 30 24 18 8 28 19 25 27 -3 9 0 11 11
7 10 -4 14 -2 9 5 -6 11 29 28 51 24 6 -2 15 3 19 9 5 8 3 9 -7 4 -8 -5 -7 0
4 12 9 11 15 22 12 25 -3 3 1 8 10 12 13 4 15 1 10 -13 -4 -15 -1 -19 12 -17
9 2 19 9 21 17 3 11 1 11 -7 -1 -6 -8 -11 -10 -11 -4 0 6 11 20 25 32 14 12
25 18 25 14 0 -5 14 -9 30 -9 17 0 38 -7 47 -16 15 -15 15 -18 -3 -38 -10 -13
-14 -19 -8 -16 15 8 25 -17 18 -40 -5 -16 -4 -16 10 1 8 10 13 22 11 27 -3 4
-1 10 4 13 5 3 15 -13 23 -36 9 -31 19 -44 35 -46 26 -4 37 -28 16 -36 -11 -5
-13 -10 -4 -20 6 -7 7 -17 3 -21 -4 -5 -1 -5 6 -1 6 4 12 14 12 22 0 9 7 14
18 12 10 -2 16 -12 15 -23 -1 -11 4 -23 10 -28 8 -6 7 -7 -3 -4 -8 2 -15 11
-15 20 0 8 -4 19 -8 23 -4 4 -7 -2 -7 -13 0 -25 30 -53 58 -53 26 0 29 -17 5
-23 -13 -3 -14 -5 -3 -6 24 -2 44 -40 29 -57 -6 -8 -7 -14 -2 -14 5 0 9 -17
10 -37 1 -58 7 -93 16 -93 5 0 7 12 4 27 -2 16 -2 22 0 15 3 -7 8 -10 13 -7 5
3 12 0 16 -6 4 -8 3 -9 -4 -5 -8 5 -12 0 -12 -14 0 -11 -6 -23 -14 -26 -8 -3
-11 -15 -9 -32 3 -19 2 -23 -5 -13 -7 9 -12 10 -16 2 -8 -12 32 -31 65 -31 18
0 18 -2 7 -14 -8 -8 -23 -16 -34 -18 -20 -5 -17 -8 32 -23 9 -3 14 -11 10 -20
-6 -17 29 -39 47 -29 6 4 4 -2 -5 -13 -22 -25 -23 -39 -2 -51 11 -6 13 -11 5
-16 -6 -4 -11 -12 -11 -17 0 -6 4 -8 8 -5 5 3 6 -8 4 -25 -3 -19 0 -29 9 -29
7 0 10 -2 7 -5 -3 -3 -17 0 -32 6 -29 14 -60 -1 -35 -16 8 -6 10 -4 4 4 -5 9
-2 12 11 9 16 -3 18 -11 16 -47 -3 -30 0 -41 7 -37 6 4 11 2 11 -3 0 -6 -6
-11 -14 -11 -8 0 -14 -8 -14 -17 0 -10 -3 -26 -7 -35 -4 -11 -3 -18 4 -18 6 0
11 -7 11 -15 0 -8 -4 -15 -10 -15 -5 0 -10 -7 -10 -15 0 -8 4 -15 9 -15 4 0 6
-12 3 -26 -4 -20 -2 -25 8 -19 16 10 -7 -36 -24 -47 -6 -4 -4 -9 7 -14 9 -3
17 -15 17 -26 0 -10 4 -16 10 -13 6 3 10 2 10 -4 0 -5 -5 -13 -10 -16 -6 -3
-10 -15 -10 -25 0 -14 5 -18 16 -13 13 5 15 2 8 -18 -4 -13 -7 -32 -6 -42 0
-9 -3 -15 -8 -12 -6 4 -7 -2 -3 -11 4 -12 8 -14 11 -6 3 10 7 10 18 1 12 -10
12 -14 2 -21 -9 -7 -6 -8 9 -5 20 4 21 2 12 -14 -5 -10 -6 -19 -2 -19 4 0 1
-5 -7 -10 -13 -8 -13 -10 2 -10 11 0 15 -7 14 -25 -2 -13 2 -23 8 -22 6 1 12
-16 14 -37 3 -29 6 -36 13 -25 8 12 10 12 18 -1 5 -8 8 -17 5 -21 -2 -4 1 -11
7 -15 8 -5 9 -3 4 6 -6 10 -4 12 9 7 9 -4 15 -3 12 2 -3 5 1 14 9 21 13 10 15
9 15 -11 0 -26 15 -16 24 16 3 12 4 9 2 -7 -3 -26 5 -34 29 -28 6 1 23 4 39 7
25 4 28 3 18 -10 -9 -10 -9 -21 -2 -38 10 -22 10 -22 5 6 l-5 30 20 -24 c26
-30 25 -21 0 25 -12 20 -19 41 -16 48 2 6 5 3 5 -6 1 -23 15 -23 37 0 17 16
17 16 11 0 -7 -20 16 -82 26 -72 4 4 5 -7 3 -24 -4 -34 8 -35 17 -2 3 13 -4
31 -19 49 -22 27 -23 41 -1 41 5 0 7 -6 4 -14 -4 -11 2 -14 29 -12 19 2 34 -1
34 -7 0 -5 7 -4 15 3 9 7 15 8 15 2 0 -16 -30 -23 -52 -11 -26 14 -35 4 -10
-12 17 -11 18 -17 10 -38 -16 -42 -18 -61 -5 -61 21 0 40 17 33 29 -4 7 -1 9
8 5 9 -4 14 -15 12 -27 -2 -13 5 -29 16 -38 10 -10 17 -22 16 -29 -2 -7 2 -14
7 -16 15 -5 41 14 31 23 -5 4 -11 2 -13 -4 -3 -7 -10 -13 -16 -13 -8 0 -8 3 0
11 6 6 9 18 6 25 -3 8 0 14 6 14 6 0 11 -5 11 -11 0 -5 5 -7 12 -3 7 4 8 3 4
-4 -4 -7 -3 -12 3 -12 6 0 8 -7 5 -15 -5 -12 3 -15 39 -15 27 0 47 5 50 13 3
9 9 9 26 -1 18 -10 21 -10 21 3 0 8 7 15 15 15 18 0 20 -17 3 -22 -6 -2 72 -5
173 -6 127 -2 179 1 169 8 -12 7 -7 10 18 10 19 0 31 -4 27 -10 -4 -6 344 -10
970 -10 l975 0 0 264 c0 176 -4 267 -11 271 -5 4 -18 0 -27 -7 -37 -32 -42
-29 -25 16 9 25 20 43 25 40 4 -3 7 8 7 23 -1 25 7 88 11 88 18 0 25 1171 8
1193 -7 8 -7 12 1 12 8 0 11 277 11 1000 l0 1000 -246 0 c-208 0 -248 -2 -261
-15 -8 -9 -12 -19 -8 -23 3 -4 11 1 16 11 6 9 15 17 22 17 7 0 6 -4 -3 -10 -8
-5 -12 -10 -7 -11 4 -1 12 -3 17 -4 6 -1 17 -3 26 -4 10 -1 14 -7 10 -16 -3
-8 -1 -15 4 -15 6 0 10 2 10 4 0 2 3 11 6 19 3 9 -2 17 -13 20 -12 4 -9 5 7 4
17 -1 26 -9 30 -27 5 -22 7 -23 13 -7 4 11 5 23 1 28 -3 5 0 9 5 9 14 0 14
-25 0 -53 -9 -17 -5 -16 14 6 22 25 25 26 32 10 5 -10 10 -31 12 -48 4 -24 2
-28 -8 -17 -21 20 -48 15 -42 -8 6 -23 18 -26 27 -7 3 6 4 -3 3 -21 -3 -24 0
-32 10 -28 13 5 15 2 18 -47 2 -25 -1 -28 -19 -23 -12 3 -25 6 -29 6 -5 0 -6
4 -3 9 4 5 -3 7 -14 4 -12 -3 -22 1 -26 11 -3 9 -14 16 -23 16 -21 1 -51 24
-52 41 0 8 -4 5 -9 -6 -5 -11 -9 -15 -9 -8 -1 7 -8 10 -18 6 -12 -5 -14 -3 -8
7 5 8 4 11 -2 7 -23 -14 -326 -3 -331 13 -2 5 -9 7 -17 4 -7 -3 -22 -1 -33 5
-13 7 -22 7 -30 -1 -9 -9 -12 -9 -12 0 0 7 -8 12 -18 12 -23 0 -64 29 -57 40
11 18 -28 42 -57 36 -26 -5 -28 -3 -26 22 l3 27 -619 3 c-586 2 -618 1 -612
-15 7 -17 6 -17 -11 0 -16 16 -18 16 -31 -5 l-13 -23 6 23 c5 16 2 22 -9 22
-8 0 -17 -4 -21 -10z m1232 -32 c-3 -8 -6 -5 -6 6 -1 11 2 17 5 13 3 -3 4 -12
1 -19z m-1217 -30 c0 -6 -6 -5 -15 2 -8 7 -15 14 -15 16 0 2 7 1 15 -2 8 -4
15 -11 15 -16z m-47 -15 c5 -26 4 -26 -9 -9 -7 10 -11 23 -8 27 8 14 11 11 17
-18z m568 -44 c-29 -27 -49 -24 -23 4 12 13 22 30 22 38 0 28 15 31 18 4 2
-18 -4 -34 -17 -46z m-580 4 c7 -19 6 -29 -2 -37 -8 -8 -10 -7 -7 4 3 8 -1 21
-9 28 -7 8 -11 18 -8 23 10 14 15 11 26 -18z m39 1 c0 -8 -19 -13 -24 -6 -3 5
1 9 9 9 8 0 15 -2 15 -3z m1565 -114 c3 -5 1 -10 -4 -10 -6 0 -11 5 -11 10 0
6 2 10 4 10 3 0 8 -4 11 -10z m-2260 -30 c-3 -5 -13 -10 -21 -10 -8 0 -12 5
-9 10 3 6 13 10 21 10 8 0 12 -4 9 -10z m-132 -43 c-3 -5 -9 -3 -14 4 -4 7 -5
17 -2 22 3 5 9 3 14 -4 4 -7 5 -17 2 -22z m-346 -232 c0 -8 -4 -12 -9 -9 -5 3
-6 10 -3 15 9 13 12 11 12 -6z m2868 -482 c46 -17 85 -50 85 -71 0 -9 7 -24
17 -34 14 -16 14 -18 0 -18 -8 0 -18 6 -20 13 -5 11 -11 -18 -8 -36 2 -14 -67
-75 -76 -67 -9 9 -53 -5 -53 -18 0 -5 -7 -9 -15 -9 -17 0 -20 13 -5 22 6 3 10
14 10 23 0 12 -3 13 -11 5 -19 -19 -39 10 -39 55 0 22 -4 63 -10 92 -5 29 -8
56 -5 60 7 11 82 1 130 -17z m-1190 -17 c31 -13 45 -27 63 -64 13 -26 20 -57
18 -71 -8 -35 -18 -170 -18 -226 0 -27 -2 -57 -5 -65 -8 -21 -11 -80 -3 -75 3
2 6 -8 7 -23 2 -24 1 -25 -7 -7 -7 16 -9 13 -9 -15 1 -55 -7 -146 -13 -156 -3
-5 -2 -31 2 -57 4 -28 3 -50 -3 -54 -5 -3 -3 -9 4 -14 9 -6 10 -12 4 -16 -11
-8 -16 -52 -6 -51 3 0 9 -1 14 -2 4 -1 13 -3 19 -4 7 0 14 -10 16 -21 2 -11 0
-16 -5 -10 -8 10 -43 19 -43 11 0 -19 14 -34 28 -29 14 5 15 3 5 -8 -19 -20
-16 -39 6 -39 11 0 23 -4 26 -10 3 -5 -2 -10 -12 -10 -15 0 -16 -2 -3 -10 8
-5 16 -18 16 -29 1 -11 -2 -18 -6 -16 -4 3 -13 -2 -20 -10 -11 -13 -10 -14 4
-9 9 3 16 2 16 -4 0 -17 -28 -21 -34 -5 -6 14 -8 14 -24 -1 -10 -9 -31 -16
-46 -16 -14 0 -29 -6 -32 -14 -7 -19 -40 -26 -53 -13 -8 8 -11 8 -11 -1 0 -7
-5 -11 -11 -9 -7 1 -16 -13 -21 -30 -5 -18 -13 -33 -18 -33 -5 0 -16 -16 -25
-36 -8 -20 -24 -38 -34 -41 -16 -4 -19 -11 -15 -37 2 -17 1 -25 -2 -18 -5 10
-9 10 -20 1 -8 -6 -14 -8 -14 -3 0 5 -12 10 -27 11 -17 1 -37 13 -55 35 -15
18 -28 29 -28 24 0 -5 -6 -4 -13 2 -7 6 -35 14 -62 17 -28 4 -53 9 -57 11 -4
2 -9 1 -12 -4 -3 -5 -19 -7 -36 -4 -16 2 -37 -1 -45 -8 -9 -7 -16 -11 -18 -9
-20 36 -27 51 -27 61 0 6 -6 19 -14 27 -11 13 -13 34 -7 99 4 48 12 86 19 91
7 4 10 15 6 24 -3 10 -1 17 5 17 6 0 11 7 11 15 0 8 -6 14 -12 12 -15 -2 -11
36 4 42 6 2 4 7 -3 12 -11 7 -10 9 4 9 9 0 17 7 17 15 0 8 6 15 14 15 8 0 18
18 24 41 8 34 8 45 -4 56 -16 17 -19 43 -3 43 6 0 7 5 2 13 -12 19 -12 38 -1
31 6 -4 8 1 4 13 -4 13 2 29 19 49 14 16 34 58 45 94 24 77 27 82 62 97 l27
12 -15 -47 c-9 -26 -18 -55 -21 -64 -6 -19 4 -22 31 -12 8 3 12 12 9 21 -4 11
-2 14 5 9 8 -5 14 3 18 23 4 17 9 31 13 31 3 0 12 13 19 29 9 19 18 28 28 24
8 -3 14 0 14 5 0 6 -7 12 -15 14 -12 2 -7 16 20 61 19 32 34 61 34 65 -4 22 2
42 10 38 9 -6 23 38 26 84 1 13 7 26 14 28 6 2 11 9 11 15 0 7 9 18 20 25 11
6 17 18 14 25 -13 34 119 43 191 13z m-948 -168 c-3 -8 -6 -5 -6 6 -1 11 2 17
5 13 3 -3 4 -12 1 -19z m13 -44 c-18 -21 -24 -10 -8 15 7 12 14 17 16 11 2 -6
-2 -17 -8 -26z m-40 -28 c0 -2 -7 -7 -16 -10 -8 -3 -12 -2 -9 4 6 10 25 14 25
6z m560 -66 c0 -5 -5 -10 -11 -10 -5 0 -7 5 -4 10 3 6 8 10 11 10 2 0 4 -4 4
-10z m1570 -10 c-8 -5 -19 -10 -25 -10 -5 0 -3 5 5 10 8 5 20 10 25 10 6 0 3
-5 -5 -10z m728 -55 c-3 -3 -9 2 -12 12 -6 14 -5 15 5 6 7 -7 10 -15 7 -18z
m-3328 5 c0 -5 -6 -10 -14 -10 -8 0 -18 5 -21 10 -3 6 3 10 14 10 12 0 21 -4
21 -10z m125 -20 c7 -12 -22 -12 -50 0 -17 7 -15 9 12 9 17 1 35 -3 38 -9z
m30 -10 c3 -5 1 -10 -4 -10 -6 0 -11 5 -11 10 0 6 2 10 4 10 3 0 8 -4 11 -10z
m42 -6 c-3 -3 -12 -4 -19 -1 -8 3 -5 6 6 6 11 1 17 -2 13 -5z m60 -10 c-3 -3
-12 -4 -19 -1 -8 3 -5 6 6 6 11 1 17 -2 13 -5z m3070 -66 c-3 -7 -5 -2 -5 12
0 14 2 19 5 13 2 -7 2 -19 0 -25z m-2489 -264 c0 -17 -3 -22 -8 -13 -5 6 -6
18 -3 26 8 19 11 16 11 -13z m2473 -155 l-10 -24 0 26 c-1 14 2 29 6 33 12 12
14 -9 4 -35z m19 -119 c-7 -4 -10 -12 -6 -18 3 -6 1 -14 -6 -18 -7 -4 -10 -4
-6 1 4 4 3 14 -3 22 -9 10 -8 13 0 13 7 0 9 4 6 10 -3 6 1 7 10 3 12 -4 13 -8
5 -13z m-3295 -30 c0 -7 -7 -15 -15 -17 -13 -4 -13 -3 0 6 13 10 13 12 0 22
-13 9 -13 10 0 6 8 -2 15 -10 15 -17z m-275 -10 c0 -5 -8 -10 -17 -10 -15 0
-16 2 -3 10 19 12 20 12 20 0z m2200 0 c0 -5 -5 -10 -11 -10 -5 0 -7 5 -4 10
3 6 8 10 11 10 2 0 4 -4 4 -10z m-1815 -180 c3 -5 -1 -10 -10 -10 -9 0 -13 5
-10 10 3 6 8 10 10 10 2 0 7 -4 10 -10z m665 -20 c0 -5 -7 -7 -15 -4 -8 4 -15
8 -15 10 0 2 7 4 15 4 8 0 15 -4 15 -10z m88 -142 c3 -7 77 -3 163 8 51 6 58
0 66 -66 2 -19 8 -39 13 -44 6 -6 3 -18 -9 -30 -16 -19 -18 -29 -10 -101 5
-43 14 -84 19 -89 6 -6 10 -20 10 -33 0 -12 6 -26 14 -30 7 -4 16 -27 18 -50
6 -39 4 -43 -26 -57 -17 -8 -74 -19 -126 -25 -114 -12 -147 -19 -173 -32 -27
-15 -62 -21 -134 -23 -33 0 -59 -4 -56 -9 2 -4 -11 1 -30 10 -19 10 -32 20
-28 23 15 12 9 28 -9 23 -28 -7 -25 13 3 22 l22 7 -25 7 -25 7 25 8 25 8 -25
8 c-14 4 -21 8 -17 9 5 1 5 7 0 14 -4 6 -8 31 -8 54 0 28 2 37 8 28 13 -23 23
-18 34 19 7 22 7 39 0 51 -7 12 -5 27 5 49 14 30 15 42 6 76 -3 8 -3 12 -1 8
3 -4 10 -2 18 5 7 7 11 15 9 18 -2 4 3 12 11 19 8 7 15 20 15 29 0 17 60 93
60 76 0 -5 5 -2 11 7 5 9 16 15 23 12 8 -3 19 3 25 15 11 20 11 20 54 -2 23
-12 43 -25 45 -29z m-628 38 c0 -2 -7 -7 -16 -10 -8 -3 -12 -2 -9 4 6 10 25
14 25 6z m10 -141 c0 -9 -6 -12 -16 -8 -13 5 -13 7 -2 14 17 11 18 11 18 -6z
m74 -3 c3 -5 -1 -9 -9 -9 -8 0 -12 4 -9 9 3 4 7 8 9 8 2 0 6 -4 9 -8z m-89
-112 c3 -5 1 -10 -4 -10 -6 0 -11 5 -11 10 0 6 2 10 4 10 3 0 8 -4 11 -10z
m340 -99 c-3 -6 -11 -11 -17 -11 -6 0 -6 6 2 15 14 17 26 13 15 -4z m988 -95
c4 -10 1 -13 -9 -9 -7 3 -14 9 -14 14 0 14 17 10 23 -5z m14 -32 c-3 -3 -12
-4 -19 -1 -8 3 -5 6 6 6 11 1 17 -2 13 -5z m-62 -14 c3 -5 -1 -10 -9 -10 -8 0
-18 5 -21 10 -3 6 1 10 9 10 8 0 18 -4 21 -10z m-812 -224 c126 -6 167 -13
167 -27 0 -5 5 -9 11 -9 5 0 7 6 3 13 -6 9 -5 9 8 0 8 -7 18 -10 22 -6 4 4 11
1 16 -7 7 -10 10 -11 10 -2 0 6 5 12 11 12 5 0 7 -5 3 -12 -5 -7 0 -9 14 -6
22 6 58 -23 45 -36 -4 -4 1 -4 12 -1 11 3 9 0 -5 -7 -14 -6 -27 -13 -29 -15
-10 -7 44 -53 56 -49 7 3 13 2 13 -3 0 -4 7 -8 15 -8 19 0 19 2 -2 35 l-18 27
25 -16 c14 -9 25 -23 25 -30 1 -21 15 -40 25 -34 5 3 12 -6 16 -20 3 -14 11
-25 18 -26 6 0 -2 -5 -17 -9 -16 -5 -39 -5 -52 0 -15 6 -27 4 -35 -3 -10 -9
-14 -9 -17 1 -3 6 -13 12 -24 12 -10 0 -19 -6 -19 -12 0 -9 -4 -8 -10 2 -5 8
-10 10 -10 4 0 -7 -11 -9 -26 -6 -17 3 -25 1 -21 -5 4 -6 -4 -10 -18 -10 -16
0 -22 4 -18 11 4 6 -1 5 -10 -3 -11 -9 -17 -10 -17 -2 0 6 -7 11 -16 11 -8 0
-13 -4 -9 -9 3 -5 -7 -9 -22 -9 -55 1 -62 -1 -58 -21 3 -15 -1 -19 -17 -16
-30 6 -34 13 -19 37 7 11 8 17 2 13 -7 -4 -11 3 -11 18 0 14 -6 24 -15 24 -8
0 -15 -6 -15 -14 0 -7 5 -13 11 -13 5 0 7 -5 4 -10 -7 -11 -35 12 -35 29 0 6
-9 11 -21 11 -15 0 -19 5 -15 16 3 9 2 12 -5 8 -6 -3 -9 -15 -6 -25 3 -10 1
-22 -5 -25 -6 -4 -9 7 -8 27 4 60 1 76 -10 59 -6 -9 -5 -17 3 -22 8 -5 6 -8
-6 -8 -16 0 -18 6 -14 36 3 21 0 40 -8 47 -13 13 -8 50 6 41 5 -3 6 2 3 11 -4
9 -9 14 -12 11 -2 -3 -14 0 -26 6 -20 11 -20 11 -1 18 11 4 25 6 30 4 6 -1 63
-5 128 -8z m1112 -86 c-3 -5 -11 -10 -16 -10 -6 0 -7 5 -4 10 3 6 11 10 16 10
6 0 7 -4 4 -10z m95 -42 c-27 -22 -45 -19 -45 8 0 22 34 35 54 20 11 -8 9 -14
-9 -28z m-67 -8 c-8 -33 -13 -38 -13 -12 0 12 -5 22 -11 22 -5 0 -8 -4 -4 -9
3 -5 1 -12 -5 -16 -5 -3 -10 -2 -10 4 0 22 12 37 30 37 16 0 18 -5 13 -26z
m127 26 c0 -3 -4 -8 -10 -11 -5 -3 -10 -1 -10 4 0 6 5 11 10 11 6 0 10 -2 10
-4z m-440 -66 c8 -15 8 -20 -3 -20 -7 0 -13 9 -14 20 -1 11 0 20 2 20 2 0 9
-9 15 -20z m-33 -8 c-1 -14 -10 -19 -36 -20 l-35 -2 34 19 c19 10 36 19 37 20
1 0 1 -7 0 -17z m-862 -62 c-3 -5 -11 -10 -16 -10 -6 0 -7 5 -4 10 3 6 11 10
16 10 6 0 7 -4 4 -10z m75 -25 c0 -12 -19 -12 -23 0 -4 9 -1 12 9 8 7 -3 14
-7 14 -8z m-70 -70 c0 -8 -2 -15 -4 -15 -2 0 -6 7 -10 15 -3 8 -1 15 4 15 6 0
10 -7 10 -15z m-56 -11 c3 -8 2 -12 -4 -9 -6 3 -10 10 -10 16 0 14 7 11 14 -7z
m102 -152 c-17 -16 -18 -16 -5 5 7 12 15 20 18 17 3 -2 -3 -12 -13 -22z m2474
-4 c0 -4 -4 -8 -9 -8 -6 0 -12 4 -15 8 -3 5 1 9 9 9 8 0 15 -4 15 -9z m45 -6
c-3 -3 -11 0 -18 7 -9 10 -8 11 6 5 10 -3 15 -9 12 -12z m-2515 -16 c0 -3 -4
-8 -10 -11 -5 -3 -10 -1 -10 4 0 6 5 11 10 11 6 0 10 -2 10 -4z m2330 0 c0 -3
-4 -8 -10 -11 -5 -3 -10 -1 -10 4 0 6 5 11 10 11 6 0 10 -2 10 -4z m-2501 -37
c-19 -11 -24 -3 -8 14 8 9 16 11 18 5 2 -6 -3 -14 -10 -19z m35 16 c-4 -8 -8
-15 -10 -15 -2 0 -4 7 -4 15 0 8 4 15 10 15 5 0 7 -7 4 -15z m695 -127 c11
-34 15 -39 22 -25 11 19 39 23 39 6 0 -5 5 -7 10 -4 14 9 13 -21 -2 -44 -11
-18 -13 -17 -42 10 -20 19 -34 25 -42 19 -14 -12 -24 -3 -24 22 0 10 -4 18
-10 18 -5 0 -10 6 -10 14 0 12 11 19 41 25 3 0 11 -18 18 -41z m591 -3 c0 -8
-7 -20 -15 -29 -8 -8 -15 -20 -15 -26 0 -6 -8 -10 -17 -8 -10 1 -24 -1 -31 -6
-7 -4 -19 -3 -27 4 -10 9 -14 7 -18 -7 -4 -17 -5 -17 -6 0 0 10 6 20 14 23 8
4 15 12 15 20 0 8 7 14 15 14 8 0 22 8 31 19 18 20 54 17 54 -4z m-1130 5 c0
-5 -2 -10 -4 -10 -3 0 -8 5 -11 10 -3 6 -1 10 4 10 6 0 11 -4 11 -10z m474
-16 c9 -24 2 -26 -12 -4 -7 11 -8 20 -3 20 5 0 12 -7 15 -16z m1896 6 c0 -5
-5 -10 -11 -10 -5 0 -7 5 -4 10 3 6 8 10 11 10 2 0 4 -4 4 -10z m-1880 -50 c0
-5 -2 -10 -4 -10 -3 0 -8 5 -11 10 -3 6 -1 10 4 10 6 0 11 -4 11 -10z"/>
<path d="M1535 2240 c3 -5 8 -10 11 -10 2 0 4 5 4 10 0 6 -5 10 -11 10 -5 0
-7 -4 -4 -10z"/>
<path d="M1338 533 c7 -3 16 -2 19 1 4 3 -2 6 -13 5 -11 0 -14 -3 -6 -6z"/>
<path d="M1312 511 c2 -7 7 -12 11 -12 12 1 9 15 -3 20 -7 2 -11 -2 -8 -8z"/>
<path d="M3340 3887 c0 -10 8 -17 18 -17 9 0 13 4 7 8 -5 4 -13 11 -17 16 -5
5 -8 2 -8 -7z"/>
<path d="M3313 3863 c4 -3 2 -12 -4 -20 -9 -9 -8 -13 0 -13 6 0 21 -10 33 -22
l21 -21 -5 21 c-4 12 -2 22 3 22 5 0 9 4 9 8 0 5 -7 9 -15 9 -8 0 -15 -4 -15
-9 0 -4 -4 -8 -9 -8 -5 0 -7 9 -4 20 3 12 0 20 -8 20 -7 0 -9 -3 -6 -7z"/>
<path d="M2897 3843 c-10 -9 -9 -23 2 -23 5 0 11 7 15 15 5 15 -5 20 -17 8z"/>
<path d="M3560 3830 c0 -5 5 -10 11 -10 5 0 7 5 4 10 -3 6 -8 10 -11 10 -2 0
-4 -4 -4 -10z"/>
<path d="M3435 3790 c10 -11 20 -20 23 -20 3 0 -3 9 -13 20 -10 11 -20 20 -23
20 -3 0 3 -9 13 -20z"/>
<path d="M17 3611 c9 -10 8 -23 -3 -53 -16 -46 -19 -138 -4 -138 6 0 10 -5 10
-11 0 -5 -4 -8 -8 -5 -5 3 -9 -15 -10 -39 0 -25 4 -47 9 -51 5 -3 9 -10 9 -15
0 -6 -4 -7 -10 -4 -5 3 -10 1 -10 -4 0 -6 5 -11 10 -11 7 0 7 -7 0 -21 -7 -11
-9 -23 -6 -27 3 -3 6 0 6 7 0 7 4 10 9 7 9 -6 26 22 23 37 -1 4 3 7 8 7 6 0
10 -4 10 -10 0 -5 7 -10 16 -10 9 0 12 5 8 12 -4 6 -8 30 -8 52 -1 23 -6 40
-12 39 -5 -1 -11 17 -13 40 -1 23 -6 44 -12 45 -6 3 -6 8 1 17 16 19 19 104 3
98 -8 -3 -11 0 -8 9 3 8 -2 21 -12 28 -14 11 -15 11 -6 1z m13 -165 c0 -3 -4
-8 -10 -11 -5 -3 -10 -1 -10 4 0 6 5 11 10 11 6 0 10 -2 10 -4z m38 -108 c-3
-7 -13 -15 -23 -16 -15 -4 -16 -2 -4 12 17 19 32 21 27 4z"/>
<path d="M242 3330 c0 -14 2 -19 5 -12 2 6 2 18 0 25 -3 6 -5 1 -5 -13z"/>
<path d="M55 3239 c11 -7 23 -17 27 -23 5 -7 8 -4 8 7 0 9 -4 17 -9 17 -5 0
-18 3 -28 6 -15 5 -15 3 2 -7z"/>
<path d="M236 3167 c3 -10 9 -15 12 -12 3 3 0 11 -7 18 -10 9 -11 8 -5 -6z"/>
<path d="M593 1625 c0 -17 32 -21 42 -5 3 6 -1 7 -9 4 -9 -3 -16 -1 -16 5 0 6
-4 11 -8 11 -5 0 -9 -7 -9 -15z"/>
<path d="M736 1458 c5 -8 2 -9 -10 -5 -12 5 -16 3 -14 -5 7 -19 32 -16 36 5 2
9 -2 17 -8 17 -6 0 -8 -5 -4 -12z"/>
<path d="M745 1320 c-3 -5 -1 -10 4 -10 6 0 11 5 11 10 0 6 -2 10 -4 10 -3 0
-8 -4 -11 -10z"/>
<path d="M1 1231 c-2 -80 0 -92 24 -126 15 -23 23 -46 19 -57 -3 -12 0 -18 10
-18 15 0 32 -52 22 -69 -4 -5 1 -17 10 -25 9 -9 25 -33 35 -54 18 -35 19 -35
13 -7 -4 17 -16 55 -27 85 -12 30 -20 58 -19 63 1 4 -2 7 -6 7 -5 0 -9 6 -10
13 -1 17 -9 46 -26 92 -8 22 -15 52 -16 67 0 15 -4 29 -10 33 -5 3 -8 21 -6
41 1 19 -1 37 -4 39 -4 3 -8 -35 -9 -84z"/>
<path d="M740 1285 c0 -8 4 -15 10 -15 5 0 7 7 4 15 -4 8 -8 15 -10 15 -2 0
-4 -7 -4 -15z"/>
<path d="M827 1085 c-6 -13 1 -25 14 -25 14 0 18 28 4 34 -7 2 -16 -1 -18 -9z"/>
<path d="M830 1009 c0 -5 5 -7 10 -4 6 3 10 8 10 11 0 2 -4 4 -10 4 -5 0 -10
-5 -10 -11z"/>
<path d="M219 915 c-8 -8 2 -65 12 -65 16 0 20 20 6 45 -7 14 -15 23 -18 20z"/>
<path d="M231 556 c-10 -12 -7 -18 14 -32 31 -21 42 -12 27 21 -13 28 -24 31
-41 11z"/>
<path d="M274 477 c-23 -27 -20 -42 13 -64 37 -25 59 -30 46 -10 -4 6 -8 14
-8 17 -1 13 -28 70 -34 70 -3 -1 -11 -6 -17 -13z"/>
<path d="M843 453 c-15 -5 -17 -23 -4 -23 5 0 11 7 15 15 3 8 4 15 3 14 -1 0
-8 -3 -14 -6z"/>
<path d="M350 340 c23 -16 -16 -43 -41 -30 -26 14 -33 12 -19 -5 16 -19 67
-46 105 -54 28 -6 30 -11 33 -54 2 -31 8 -47 16 -47 19 0 28 -28 16 -51 -9
-15 -6 -24 15 -45 14 -13 25 -31 25 -39 0 -8 6 -15 14 -15 9 0 12 7 9 20 -3
11 -9 17 -14 14 -5 -3 -9 -1 -9 5 0 5 6 12 13 15 9 4 9 8 1 11 -7 3 -10 15 -7
25 6 23 -68 174 -110 226 -16 19 -36 34 -45 34 -15 0 -15 -2 -2 -10z"/>
<path d="M1180 196 c0 -2 7 -9 15 -16 13 -11 14 -10 9 4 -5 14 -24 23 -24 12z"/>
<path d="M1010 180 c0 -5 7 -7 15 -4 8 4 15 8 15 10 0 2 -7 4 -15 4 -8 0 -15
-4 -15 -10z"/>
<path d="M1120 182 c0 -6 -6 -9 -13 -6 -8 3 -13 -3 -13 -16 0 -20 0 -20 20 0
11 11 17 23 13 26 -4 4 -7 2 -7 -4z"/>
<path d="M1201 144 c0 -11 3 -14 6 -6 3 7 2 16 -1 19 -3 4 -6 -2 -5 -13z"/>
<path d="M1125 121 c-3 -5 -2 -12 3 -15 5 -3 9 1 9 9 0 17 -3 19 -12 6z"/>
<path d="M1236 55 c-3 -8 -1 -15 4 -15 6 0 10 7 10 15 0 8 -2 15 -4 15 -2 0
-6 -7 -10 -15z"/>
<path d="M1196 52 c-4 -7 -2 -12 5 -12 7 0 9 -8 6 -21 -4 -16 -3 -19 5 -11 8
8 8 18 1 34 -6 15 -12 18 -17 10z"/>
</g>
</svg>
