<?xml version="1.0" standalone="no"?>
<!DOCTYPE svg PUBLIC "-//W3C//DTD SVG 20010904//EN"
 "http://www.w3.org/TR/2001/REC-SVG-20010904/DTD/svg10.dtd">
<svg version="1.0" xmlns="http://www.w3.org/2000/svg"
 width="1024.000000pt" height="1024.000000pt" viewBox="0 0 1024.000000 1024.000000"
 preserveAspectRatio="xMidYMid meet">
<metadata>
Created by potrace 1.14, written by Peter Selinger 2001-2017
</metadata>
<g transform="translate(0.000000,1024.000000) scale(0.100000,-0.100000)"
fill="#000000" stroke="none">
<path d="M6939 9686 c-2 -2 -31 -6 -64 -10 -33 -3 -87 -11 -120 -17 -33 -5
-69 -12 -80 -14 -33 -5 -162 -44 -265 -80 -191 -66 -385 -162 -624 -308 -113
-69 -348 -234 -354 -249 -2 -5 -10 -8 -17 -8 -7 0 -15 -3 -17 -7 -1 -5 -48
-44 -103 -87 -55 -43 -105 -84 -110 -90 -6 -6 -20 -19 -32 -29 -20 -18 -22
-18 -40 0 -10 11 -45 41 -78 69 -33 27 -62 51 -65 54 -3 3 -34 28 -70 55 -36
28 -72 55 -80 62 -8 7 -49 37 -90 67 -41 31 -80 60 -87 66 -7 5 -16 10 -22 10
-5 0 -11 4 -13 8 -3 8 -95 72 -104 72 -3 0 -24 13 -47 29 -90 61 -332 185
-472 241 -11 4 -32 12 -47 18 -219 88 -460 135 -688 136 -194 1 -307 -16 -454
-66 -114 -39 -280 -124 -324 -165 -7 -7 -17 -13 -21 -13 -15 0 -189 -176 -233
-235 -170 -230 -290 -557 -324 -890 -4 -33 -8 -63 -10 -67 -7 -11 -17 -225
-17 -373 0 -130 7 -289 18 -381 2 -22 7 -63 10 -93 5 -53 21 -170 31 -226 2
-16 9 -55 14 -85 5 -30 12 -70 15 -89 3 -19 8 -38 10 -41 3 -4 -23 -18 -58
-30 -211 -78 -329 -127 -522 -221 -142 -69 -180 -89 -315 -168 -302 -177 -623
-450 -761 -646 -19 -27 -41 -57 -49 -67 -8 -9 -26 -39 -40 -65 -13 -26 -28
-50 -31 -53 -13 -10 -88 -185 -109 -256 -22 -74 -23 -79 -39 -179 -9 -56 -8
-255 2 -300 2 -11 8 -38 12 -60 4 -22 9 -49 11 -61 18 -99 124 -341 192 -439
58 -84 106 -149 132 -180 253 -299 591 -549 1025 -759 156 -76 215 -100 505
-211 43 -16 44 -33 16 -171 -2 -12 -7 -45 -11 -75 -4 -30 -8 -56 -10 -59 -1
-3 -6 -32 -9 -65 -4 -33 -8 -71 -11 -85 -13 -75 -20 -234 -20 -470 0 -288 6
-377 41 -560 53 -276 151 -524 280 -708 63 -90 217 -240 306 -299 102 -68 257
-142 330 -157 13 -3 48 -12 78 -20 30 -8 80 -18 110 -21 30 -4 58 -9 62 -11
11 -7 277 -7 338 0 107 13 136 18 243 41 333 75 653 217 997 442 127 84 386
274 400 294 3 4 27 25 55 48 48 40 50 40 75 24 14 -9 30 -22 36 -28 96 -95
466 -357 689 -487 237 -138 600 -282 785 -312 19 -3 46 -8 60 -11 94 -21 399
-28 490 -12 187 35 332 92 490 195 67 43 233 208 281 277 19 28 37 51 42 53 4
2 7 8 7 13 0 5 15 32 33 61 18 29 41 71 51 93 10 22 29 61 41 87 64 128 142
428 160 613 3 33 8 67 10 75 22 81 22 631 0 763 -2 12 -7 51 -10 87 -3 36 -7
74 -9 85 -2 11 -7 45 -11 75 -4 30 -9 66 -11 80 -2 14 -7 41 -10 60 -3 19 -7
41 -10 49 -3 8 -7 37 -10 65 l-6 51 74 24 c101 34 342 126 408 157 30 15 73
33 95 42 53 21 268 131 358 183 275 160 525 366 678 559 141 178 250 405 283
590 2 14 7 41 11 60 11 59 13 223 3 291 -5 35 -10 78 -12 94 -4 34 -21 98 -43
165 -88 264 -282 522 -568 754 -100 81 -303 224 -374 262 -25 14 -59 34 -76
44 -108 69 -530 262 -715 328 -128 45 -121 41 -116 71 5 34 25 139 31 171 3
14 10 59 15 100 19 142 18 132 35 280 23 203 24 610 1 740 -3 14 -8 52 -11 85
-3 33 -10 76 -15 95 -5 19 -12 53 -15 75 -9 56 -63 253 -75 270 -4 6 -13 28
-20 50 -16 49 -70 159 -118 240 -94 158 -257 332 -393 420 -132 85 -285 150
-409 174 -30 6 -68 13 -85 16 -35 7 -290 17 -296 11z"/>
</g>
</svg>
