<svg xmlns="http://www.w3.org/2000/svg" viewBox="0 0 190.453 32.527" class="svg"><g id="CedarandHyde_Logo_Banner_2" data-name="CedarandHyde_Logo_Banner 2" transform="translate(-212.34 -1042.18)"><path id="Path_45" data-name="Path 45" d="M937.468,156.045v-5.1l-2.086,5.1h-.2l-2.091-5.1v5.1h-.476V150.33h.733l1.943,4.762,1.938-4.762h.738v5.715Z" transform="translate(-656.803 918.556)" fill="currentColor"></path><path id="Path_46" data-name="Path 46" d="M950.43,156.045V150.33h3.629v.448h-3.138V152.9H954v.443h-3.076v2.267h3.138v.443Z" transform="translate(-666.137 918.556)" fill="currentColor"></path><path id="Path_47" data-name="Path 47" d="M967.553,156.04l-1.6-2.381h-1.262v2.381h-.476v-5.715h2.134A1.619,1.619,0,0,1,968.082,152a1.572,1.572,0,0,1-1.586,1.643l1.657,2.381Zm0-4.043a1.186,1.186,0,0,0-1.267-1.229h-1.6v2.462h1.6A1.191,1.191,0,0,0,967.558,152Z" transform="translate(-673.354 918.561)" fill="currentColor"></path><path id="Path_48" data-name="Path 48" d="M978,153.087a2.857,2.857,0,0,1,2.9-2.957,2.567,2.567,0,0,1,2.086,1.01l-.414.267a2.067,2.067,0,0,0-1.672-.833,2.514,2.514,0,0,0,0,5.024,2.077,2.077,0,0,0,1.672-.829l.424.257a2.6,2.6,0,0,1-2.1,1.019,2.857,2.857,0,0,1-2.9-2.957Z" transform="translate(-680.575 918.662)" fill="currentColor"></path><path id="Path_49" data-name="Path 49" d="M997.624,156.045l-.567-1.429h-3.029l-.567,1.429H992.9l2.338-5.715h.61l2.338,5.715Zm-2.076-5.2-1.357,3.334H996.9Z" transform="translate(-688.381 918.556)" fill="currentColor"></path><path id="Path_50" data-name="Path 50" d="M1013.49,156.034l-3.624-4.919v4.91h-.476V150.31h.476l3.586,4.848v-4.843h.476v5.715Z" transform="translate(-697.018 918.567)" fill="currentColor"></path><path id="Path_51" data-name="Path 51" d="M1026.552,156.039v-5.272h-1.872v-.448h4.239v.448h-1.872v5.272Z" transform="translate(-705.027 918.562)" fill="currentColor"></path><path id="Path_52" data-name="Path 52" d="M1039.3,156.045V150.33h.476v5.715Z" transform="translate(-712.684 918.556)" fill="currentColor"></path><path id="Path_53" data-name="Path 53" d="M1046.66,156.045V150.33h.476V155.6h2.767v.443Z" transform="translate(-716.539 918.556)" fill="currentColor"></path><path id="Path_54" data-name="Path 54" d="M1059.23,156.045V150.33h3.624v.448h-3.138V152.9h3.081v.443h-3.081v2.267h3.138v.443Z" transform="translate(-723.123 918.556)" fill="currentColor"></path><path id="Path_55" data-name="Path 55" d="M813.436,109.47c-.857.667-2.329,1.3-5.239,1.3-5.448,0-8.858-3.757-8.858-7.953a9.057,9.057,0,0,1,8.953-8.572,10.777,10.777,0,0,1,5.057,1.3,10.869,10.869,0,0,1,.438,3.362c.028.071-.267.071-.267,0-.419-1.938-2.186-4.124-5.791-4.124s-6.358,2.629-6.358,7.12c0,5.472,3.586,8.267,7.043,8.267,2.529,0,5.005-1.572,5.2-4.124,0-.048.3-.048.3.052A11.652,11.652,0,0,1,813.436,109.47Z" transform="translate(-587 947.93)" fill="currentColor"></path><path id="Path_56" data-name="Path 56" d="M850.8,110.3c-.124.391-.219.438-.591.438-.881,0-2.381-.119-4.172-.119-2.381,0-4.857.048-6.6.171-.148.024-.076-.271-.029-.3,2.481-.271,2.529-.171,2.529-3.977V99.155c0-3.81-.048-3.705-2.529-4-.048,0-.119-.3.029-.271,1.738.124,4.072.171,6.5.171,1.767,0,3.386-.071,4.686-.171a4.977,4.977,0,0,0-.148,1.324,6.188,6.188,0,0,0,.048.952c0,.071-.291.048-.291,0-.2-1.1-.69-1.472-3.881-1.472h-2.353a25.2,25.2,0,0,0-.148,3.362v3.238h2.553c2.7,0,2.5-.248,2.648-.91,0,0,.319-.048.3,0a6.631,6.631,0,0,0-.172,1.548,6.288,6.288,0,0,0,.048.981c0,.071-.267.048-.267,0-.148-.786-.271-1.129-2.553-1.129h-2.553v3.653c0,3.291.443,3.586,1.572,3.586h1.248c3.734,0,3.953-.371,4.286-2.014,0-.024.3-.024.3.052C851.168,108.651,850.949,109.78,850.8,110.3Z" transform="translate(-607.959 947.596)" fill="currentColor"></path><path id="Path_57" data-name="Path 57" d="M880.579,110.714c-.833,0-3-.1-3.581-.1a34.911,34.911,0,0,0-3.853.171c-.148.024-.076-.271,0-.3,2.181-.224,2.3-.2,2.3-3.977V99.155c0-3.776-.124-3.753-2.3-4-.052,0-.124-.3,0-.271a39.273,39.273,0,0,0,4.072.171c.59,0,2.824-.1,3.681-.1,5.643,0,8.491,3.334,8.491,7.62C889.389,107.008,885.856,110.714,880.579,110.714Zm-.4-15.187a17.111,17.111,0,0,0-2.6.124,18.1,18.1,0,0,0-.219,3.481V107.4c0,2.453.343,2.748,3.9,2.748,3.486,0,6.191-2.481,6.191-6.772C887.423,98.174,884.627,95.527,880.174,95.527Z" transform="translate(-625.612 947.596)" fill="currentColor"></path><path id="Path_58" data-name="Path 58" d="M927.354,110.466a21.614,21.614,0,0,0-2.748-.171,31.253,31.253,0,0,0-3.657.171c-.124.024-.076-.271,0-.3,1.176-.124,1.743-.171,1.743-.862a12.761,12.761,0,0,0-.91-3.115l-.738-2.01h-5.539l-.857,2.01a10.518,10.518,0,0,0-1.057,3.115c0,.591.476.762,1.619.862.076,0,.124.319,0,.3a14.762,14.762,0,0,0-2.3-.171,12.9,12.9,0,0,0-2.429.171c-.124.024-.076-.271,0-.3,1.643-.124,2.281-1.152,3.481-3.976l5.177-11.849a.181.181,0,0,1,.3,0l4.419,11.849c1.1,3.019,1.543,3.81,3.557,3.976C927.43,110.195,927.506,110.49,927.354,110.466ZM918.52,97.132l-2.8,6.577h5.129Z" transform="translate(-645.17 947.919)" fill="currentColor"></path><path id="Path_59" data-name="Path 59" d="M969.234,111.106c-5.543,0-8.32-3.853-9.372-7.729a10.579,10.579,0,0,1-1.905.171,6.43,6.43,0,0,1-1.028-.048v2.967c0,3.634,0,3.81,2.3,3.977.047,0,.124.319,0,.3a25.166,25.166,0,0,0-2.972-.171,28.573,28.573,0,0,0-3.5.171c-.124.024-.076-.271-.029-.3,2.21-.224,2.31-.2,2.31-3.977V99.081c0-2.857-.076-3.705-1.471-3.705a7.034,7.034,0,0,0-.91.1c-.071,0-.148-.248,0-.3a26.859,26.859,0,0,1,5.962-.391c3.434,0,6.234,1.052,6.234,3.729a4.919,4.919,0,0,1-3.333,4.391c1.276,3.581,5.077,7.9,7.8,7.9C969.311,110.81,969.382,111.106,969.234,111.106ZM958.243,95.3a8.759,8.759,0,0,0-1.1.048,16.236,16.236,0,0,0-.219,3.51v4.148h1c3.629,0,4.905-1.376,4.905-3.462C962.829,96.162,960.648,95.3,958.243,95.3Z" transform="translate(-667.259 947.647)" fill="currentColor"></path><path id="Path_60" data-name="Path 60" d="M1014.155,111.054c-1.2,0-1.9-.738-2.643-1.719a4.2,4.2,0,0,1-3.2,1.753,2.863,2.863,0,0,1-2.886-2.676c0-1.291.9-2.381,2.543-3.024a2.825,2.825,0,0,1-1.186-2.043,2.07,2.07,0,0,1,2.267-2.133,1.984,1.984,0,0,1,2.114,1.772c0,.771-.586,1.476-1.8,2.024a9.662,9.662,0,0,1,2.786,3.01,5.326,5.326,0,0,0,1.167-2.491c0-.3-.329-.476-1.238-.552-.033,0-.067-.2,0-.2a15.159,15.159,0,0,0,2.115.119,15.326,15.326,0,0,0,1.9-.119c.088,0,.055.2,0,.2-1.186.052-1.719.31-2.972,2.081l-.8,1.2c.786,1.186,1.476,2.148,2.419,2.148a2.472,2.472,0,0,0,1.429-.414c.033,0,.152.124.086.171a3.61,3.61,0,0,1-2.1.9Zm-5.924-5.5a2.353,2.353,0,0,0,.8,4.6,2.624,2.624,0,0,0,2.281-1.1A10.791,10.791,0,0,0,1008.23,105.558Zm.686-4.053c-.786,0-1.148.476-1.148,1.272,0,.567.376,1.167,1.429,2.043a1.814,1.814,0,0,0,.981-1.8C1010.173,102.158,1009.692,101.505,1008.916,101.505Z" transform="translate(-694.944 944.284)" fill="currentColor"></path><path id="Path_61" data-name="Path 61" d="M1060.646,110.618a25.607,25.607,0,0,0-3.334.171c-.119.024-.071-.271,0-.3,1.9-.2,2.086-.224,2.086-3.977v-3.534h-9.2v3.534c0,3.61.1,3.81,2.086,3.977.048,0,.124.319,0,.3a21.324,21.324,0,0,0-2.748-.171,33.125,33.125,0,0,0-3.729.171c-.124.024-.076-.271,0-.3,2.476-.271,2.5-.171,2.5-3.977V99.155c0-3.81-.024-3.705-2.5-4-.076,0-.124-.3,0-.271a33.122,33.122,0,0,0,3.729.171,21.325,21.325,0,0,0,2.748-.171c.148,0,.071.271,0,.271-1.986.171-2.086.391-2.086,4v3.334h9.2V99.155c0-3.753-.2-3.776-2.086-4-.071,0-.119-.3,0-.271a25.606,25.606,0,0,0,3.334.171,30.077,30.077,0,0,0,3.191-.171c.119,0,.071.271,0,.271-2.553.219-2.505.343-2.505,4v7.362c0,3.657-.048,3.781,2.505,3.977.071,0,.119.319,0,.3A30.073,30.073,0,0,0,1060.646,110.618Z" transform="translate(-716.053 947.596)" fill="currentColor"></path><path id="Path_62" data-name="Path 62" d="M1103.226,99.132l-2.624,3.757v3.629c0,3.61.024,3.81,2.305,3.976.048,0,.124.319,0,.3a25.165,25.165,0,0,0-2.972-.171,28.574,28.574,0,0,0-3.505.171c-.124.024-.076-.271,0-.3,2.2-.248,2.3-.2,2.3-3.977v-3.434L1096.6,99.7c-2.334-3.753-2.972-4.319-5.005-4.538-.076,0-.124-.3,0-.271a28.578,28.578,0,0,0,3.505.171,25.047,25.047,0,0,0,2.948-.171c.148,0,.071.271,0,.271-2.162.2-1.719.952.614,4.538l1.667,2.553,2.133-3.119c2.429-3.457,2.505-3.729.476-3.972-.071,0-.124-.3,0-.271a19.3,19.3,0,0,0,2.919.171,13.7,13.7,0,0,0,2.21-.171c.124,0,.076.271,0,.271C1105.974,95.331,1105.507,95.846,1103.226,99.132Z" transform="translate(-740.036 947.596)" fill="currentColor"></path><path id="Path_63" data-name="Path 63" d="M1140.851,110.714c-.833,0-2.991-.1-3.581-.1a35.03,35.03,0,0,0-3.853.171c-.148.024-.071-.271,0-.3,2.186-.224,2.305-.2,2.305-3.977V99.155c0-3.776-.119-3.753-2.305-4-.048,0-.124-.3,0-.271a39.434,39.434,0,0,0,4.077.171c.586,0,2.819-.1,3.676-.1,5.643,0,8.491,3.334,8.491,7.62C1149.661,107.008,1146.128,110.714,1140.851,110.714Zm-.414-15.187a17,17,0,0,0-2.6.124,17.967,17.967,0,0,0-.224,3.481V107.4c0,2.453.343,2.748,3.905,2.748,3.481,0,6.191-2.481,6.191-6.772C1147.7,98.174,1144.9,95.527,1140.437,95.527Z" transform="translate(-761.936 947.596)" fill="currentColor"></path><path id="Path_64" data-name="Path 64" d="M1185.77,110.3c-.124.391-.224.438-.59.438-.886,0-2.381-.119-4.172-.119-2.381,0-4.858.048-6.6.171-.147.024-.071-.271,0-.3,2.477-.271,2.529-.171,2.529-3.977V99.155c0-3.81-.052-3.705-2.529-4-.048,0-.124-.3,0-.271,1.743.124,4.072.171,6.5.171,1.767,0,3.386-.071,4.686-.171a5.192,5.192,0,0,0-.143,1.324,6.181,6.181,0,0,0,.047.952c0,.071-.3.048-.3,0-.2-1.1-.686-1.472-3.876-1.472h-2.381a26.035,26.035,0,0,0-.148,3.362v3.238h2.553c2.7,0,2.505-.248,2.652-.91,0,0,.319-.048.3,0a6.6,6.6,0,0,0-.176,1.548c0,.267.029.786.052.981,0,.071-.271.048-.271,0-.148-.786-.271-1.129-2.552-1.129H1178.8v3.653c0,3.291.443,3.586,1.572,3.586h1.252c3.729,0,3.948-.371,4.286-2.014,0-.024.291-.024.291.052A18.617,18.617,0,0,1,1185.77,110.3Z" transform="translate(-783.406 947.596)" fill="currentColor"></path></g></svg>