<svg xmlns="http://www.w3.org/2000/svg" viewBox="0 0 107.71 107.71">
  <path fill="var(--color-primary)" d="M53.86 0a53.86 53.86 0 1 0 53.85 53.86A53.92 53.92 0 0 0 53.86 0Zm0 104.54a50.74 50.74 0 1 1 50.73-50.74 50.73 50.73 0 0 1-50.73 50.74Z"/>
  <path fill="var(--color-primary)" d="M42.75 30.63c0 4.09-1.35 7.41-3 7.41s-3-3.32-3-7.41 1.35-7.4 3-7.4 3 3.32 3 7.4Zm27.01 0c0 4.09-1.35 7.41-3 7.41s-3-3.32-3-7.41 1.35-7.4 3-7.4 3 3.32 3 7.4ZM55 89.81c-18.88 0-31-17-36-26.58-2.72-5.15-2-6.47-1-8.06.67-1.1.75-1.44.59-1.76s-.92 0-1.77.56a10.16 10.16 0 0 0-3.19 3.17 15.44 15.44 0 0 0-1.15 4.26c-.19 1.34-.13 2 .3 2.1s.57-.31 1-1.21c.93-2.12 1.91-1.9 3.46.81 5.55 9.76 17.18 29.5 37.81 29.5C74.4 92.6 85 74.2 88.57 67.85c2.09-3.71 2.79-2 3.73-.16.7 1.39 1.7 1.19 1.51-.32A29.16 29.16 0 0 0 89.92 56c-1.11-1.64-1.78-1.06-1.51.59a19 19 0 0 1 .71 4.41 13.23 13.23 0 0 1-1.74 5.63C82.72 75.84 71.67 89.81 55 89.81Z"/>
</svg>
