<svg version="1.0" xmlns="http://www.w3.org/2000/svg" preserveAspectRatio="xMidYMid meet" viewBox="72.9 61 154.1 178">
  <g transform="translate(0.000000,300.000000) scale(0.100000,-0.100000)" fill="var(--color-primary)" stroke="none">
    <path d="M734 2377 c-2 -7 -3 -89 -2 -182 l3 -170 450 -5 450 -5 50 -26 c85 -46 115 -97 115 -202 0 -94 -28 -143 -105 -182 l-60 -30 -452 -3 -453 -3 0 -184 0 -185 408 0 c448 0 483 -4 534 -57 15 -16 34 -45 43 -66 19 -46 34 -200 35 -354 l0 -113 237 0 236 0 -7 198 c-10 291 -37 387 -132 470 -40 36 -130 80 -167 83 -7 0 14 9 45 19 79 25 136 60 190 118 83 88 118 188 118 332 0 157 -47 278 -144 375 -104 103 -234 156 -432 175 -54 5 -292 10 -527 10 -340 0 -429 -3 -433 -13z"/>
    <path d="M732 753 l3 -138 298 -3 297 -2 0 114 0 114 -31 26 -31 26 -269 0 -270 0 3 -137z"/>
  </g>
</svg>
