<svg class="svg" viewBox="0 0 200 200" fill="none" xmlns="http://www.w3.org/2000/svg">
  <path fill="var(--color-primary)" d="M54.445 123.037a810.763 810.763 0 0 0-3.207 7.023 1468.23 1468.23 0 0 1-3.235-6.967c-2.412-5.207-4.81-10.486-4.91-10.67h-6.016v50.982h6.442v-35.317s2.341 5.151 4.47 9.805c.028.028.028.057.028.099h6.357s.028-.099.057-.156c2.128-4.654 4.44-9.748 4.44-9.748v35.317h6.471v-50.982h-6.016c-.1.184-2.497 5.42-4.91 10.614m-6.654-53.168c1.277-5.818 2.625-11.565 3.93-17.354 1.334 5.605 2.654 11.579 3.987 17.354h-7.917Zm.979-33.289c-.085.029-.128.086-.128.199-3.874 16.914-7.733 33.813-11.536 50.784h6.612c.766-3.136 2.625-11.068 2.625-11.068h10.883c.823 3.69 1.703 7.336 2.484 11.068h6.683A14059.79 14059.79 0 0 0 54.757 36.58h-6.016Zm47.293 75.857h-6.612l-.057 50.983h28.28v-6.627H95.977l.057-44.356Zm0-75.843h-6.612l-.057 50.969h28.28V80.95H95.977l.057-44.356Zm59.624 75.843-14.076 20.092v-20.092h-6.413v50.983h6.413v-19.709l1.66-2.37 12.742 22.079h7.407L147.3 135.537l16.12-23.015-7.762-.085Zm-20.518-69.23h10.869l-.071 44.356h6.613l.056-44.356h10.813v-6.613h-28.28v6.613Z" />
  <path fill="var(--color-primary)" d="M7.308 7.308h185.384v185.384H7.308V7.308ZM0 0l.07 200H200V0H0Z" />
</svg>
