
<svg viewBox="0 0 142 30" fill="none" xmlns="http://www.w3.org/2000/svg">
  <g clip-path="url(#clip0_22_60)">
    <path d="M141.591 25.2048C141.542 25.1082 141.487 25.0047 141.419 24.9219C141.419 24.9219 136.189 18.7604 136.093 18.6362C136.134 18.581 141.536 12.1781 141.577 12.0953C141.673 11.9228 141.714 11.7434 141.714 11.5571C141.714 11.4812 141.714 11.3984 141.687 11.3294C141.673 11.2466 141.645 11.1707 141.611 11.0948C141.563 10.9913 141.501 10.9016 141.432 10.8188C141.357 10.736 136.065 5.44394 136.031 5.39565C135.955 5.31285 135.873 5.25075 135.784 5.19555C135.598 5.08516 135.385 5.02306 135.138 5.02306H128.162C127.674 5.02306 127.132 5.28525 126.815 5.65094C126.815 5.65094 126.541 5.98212 126.163 6.42371L125.228 5.48534C125.283 5.54054 124.651 5.02306 124.128 5.02306H118.672C117.985 5.02306 117.401 5.49224 117.208 6.12012C116.033 5.31975 114.37 4.54008 112.329 4.54008C110.288 4.54008 108.35 5.28525 106.845 6.5065L105.835 5.49224C105.553 5.20245 105.168 5.03686 104.749 5.03686H99.2925C98.4404 5.03686 97.7394 5.73373 97.7394 6.5893V7.16198C96.8048 5.94762 95.3136 5.02996 93.1488 5.02996H83.7065C82.8544 5.02996 82.1603 5.71993 82.1603 6.5755V6.83079C81.2257 5.67164 79.8375 5.04376 78.2019 5.04376H69.4262C68.5741 5.04376 67.88 5.74063 67.88 6.5962V7.32067C66.9522 6.03732 65.4266 5.03686 63.1726 5.03686H53.7234C53.476 5.03686 53.2561 5.10586 53.0568 5.20245C53.3866 4.0019 53.5516 1.73879 50.8508 0.393347C48.8442 -0.614013 47.0093 0.600339 46.219 1.27651C45.0988 1.01432 43.8962 0.869428 42.618 0.869428C41.3398 0.869428 40.1165 1.02812 38.9758 1.35931C38.2473 0.703834 36.3437 -0.655411 34.2409 0.393347C31.6432 1.69049 31.7119 3.85701 32.0074 5.07826C31.8975 5.05756 31.7806 5.04376 31.6638 5.04376H20.9158C20.0637 5.04376 19.3696 5.74063 19.3696 6.5962V7.63806L17.4522 5.71993C16.3664 4.19509 14.6484 3.36023 12.6074 3.36023H1.95557C1.03471 3.36023 0.285645 4.1054 0.285645 5.03686V21.1684L0.333749 21.5134C0.409343 21.9067 0.636123 22.2379 0.938497 22.4794C0.924753 22.4794 0.917881 22.4656 0.904137 22.4587L6.08573 27.6611C6.14758 27.7439 6.22317 27.8128 6.29876 27.8749C6.5118 28.0543 6.77294 28.1854 7.0547 28.2268C7.14404 28.2475 7.24025 28.2544 7.34333 28.2544H18.8885C19.5345 28.2544 20.1461 28.1854 20.7234 28.0474C21.1082 27.9439 21.4793 27.8128 21.8229 27.6611C22.2421 27.4817 22.6338 27.2678 22.9912 27.0056C23.0255 26.9849 23.0599 26.9573 23.0943 26.9435C23.6028 26.5709 24.0357 26.1086 24.4137 25.5842L25.2246 26.3984C25.4995 26.6813 25.8844 26.8607 26.3173 26.8607H39.4018C39.9379 27.3851 40.522 27.8473 41.1611 28.2337C41.4291 28.3924 41.6971 28.5442 41.9789 28.6753C42.618 29.0065 43.2983 29.2687 44.0199 29.4757C44.1849 29.524 44.3567 29.5654 44.5285 29.6137C45.2088 29.7793 45.9304 29.8966 46.6863 29.9587C47.1261 29.9932 47.5728 30.0139 48.0401 30.0139C49.1672 30.0139 50.1774 29.9035 51.0501 29.7034C51.4831 29.593 51.8885 29.4826 52.2527 29.3584C52.3627 29.3239 52.4589 29.2825 52.5551 29.2549C52.8094 29.1583 53.043 29.0617 53.2698 28.9582C53.4141 28.8892 53.5241 28.7857 53.6134 28.6615C53.634 28.6339 53.6615 28.6132 53.6821 28.5925C53.7234 28.5304 53.744 28.4683 53.7715 28.3993C53.8127 28.2958 53.8402 28.1785 53.8402 28.0612V24.0594C54.3556 24.0594 54.8504 23.9835 55.3177 23.8455C55.3589 23.8317 55.4002 23.8248 55.4483 23.811C55.4483 23.811 58.1009 26.4536 58.1353 26.4881C58.4033 26.7089 58.74 26.8538 59.118 26.8538H63.2963C63.6742 26.8538 64.0178 26.7089 64.2859 26.4881C64.3271 26.4536 64.3614 26.426 64.3889 26.3915C64.6707 26.1086 64.8425 25.7291 64.8425 25.3013V24.1353C64.8425 24.1353 67.0072 26.3087 67.1378 26.3984C67.5295 26.6744 68.0243 26.8538 68.4641 26.8538H84.3319C84.971 26.8538 85.5689 26.771 86.1324 26.5985C86.6547 26.4536 87.1495 26.2259 87.5893 25.9361L87.8367 26.1845C87.9672 26.3708 88.139 26.5295 88.3383 26.6468C88.5582 26.7641 88.8263 26.8469 89.108 26.8469H93.2863C93.8292 26.8469 94.3102 26.564 94.5782 26.1362C94.7363 25.8878 94.8325 25.598 94.8325 25.2944V24.1284C94.8325 24.1284 96.9903 26.3018 97.1278 26.3915C97.2515 26.4812 97.4027 26.564 97.547 26.633C97.6157 26.6675 97.6776 26.6882 97.7463 26.7158C97.9799 26.7917 98.2273 26.8469 98.4541 26.8469H110.144C110.996 26.8469 111.69 26.15 111.69 25.2944V25.1013C112.281 25.6739 112.947 26.15 113.676 26.5295C113.916 26.6675 114.164 26.7848 114.425 26.8883C114.604 26.9573 114.796 27.0263 114.982 27.0815C115.847 27.3782 116.768 27.5369 117.737 27.5369C119.064 27.5369 120.184 27.2678 121.118 26.8814C121.352 26.7848 121.572 26.6813 121.785 26.5778C121.936 26.5019 122.074 26.4191 122.204 26.3363C122.383 26.2466 122.548 26.1362 122.706 26.0258L122.795 26.1155C122.926 26.3156 123.084 26.4743 123.283 26.6054C123.366 26.6537 123.462 26.702 123.558 26.7365C123.723 26.7986 123.895 26.8331 124.087 26.8331H129.537C129.963 26.8331 130.355 26.6606 130.629 26.3708C130.733 26.2673 130.815 26.15 130.884 26.0189C131.001 25.7981 131.076 25.5566 131.076 25.2806V25.0461L132.21 26.1845C132.375 26.3708 132.588 26.5295 132.822 26.6399C132.87 26.6606 132.932 26.6675 132.987 26.6951C133.172 26.7641 133.378 26.8055 133.564 26.8055H140.532C140.663 26.8055 140.786 26.7917 140.91 26.7503C141.226 26.6606 141.474 26.4536 141.618 26.15C141.652 26.081 141.673 26.0051 141.694 25.9292C141.714 25.8533 141.721 25.7774 141.721 25.6946C141.721 25.5566 141.694 25.4255 141.645 25.2875C141.625 25.2531 141.611 25.2185 141.597 25.191L141.591 25.2048Z" fill="#394c39"/>
    <path d="M135.385 22.9277L135.268 22.9415L135.165 22.9484H134.959L134.815 22.9622L134.643 22.9415H134.498H134.382H134.265H134.162H134.031H133.688H133.557C133.378 22.9415 133.248 23.0381 133.248 23.1899C133.248 23.3003 133.365 23.3969 133.392 23.4176L133.543 23.4521H133.619C133.619 23.4521 133.715 23.4245 133.722 23.4245H133.942C134.1 23.4245 134.127 23.4521 134.127 23.5142L134.114 23.666V23.7695V23.8454L134.134 23.9903V24.2318L134.107 24.3974V24.5699V24.701L134.127 24.8597L134.107 25.115V25.3771V25.5289C134.1 25.5289 134.086 25.6462 134.086 25.6462C134.086 25.8601 134.313 25.9222 134.443 25.9222C134.629 25.9222 134.78 25.8049 134.78 25.6738L134.732 25.522L134.705 25.4461V25.4047L134.718 25.2253V25.1633L134.712 25.1081L134.718 25.0667V24.9977V24.9287V24.8942V24.839L134.732 24.7562V24.6665V24.5906L134.746 24.5009L134.732 24.4319V24.3974L134.718 24.2663V24.011L134.732 23.9144L134.705 23.7695V23.7143L134.712 23.6591V23.6177L134.739 23.5418L134.725 23.4176H134.732L134.876 23.4107H135.028H135.158L135.227 23.4314L135.371 23.4452C135.571 23.4452 135.701 23.3417 135.701 23.183C135.701 23.0381 135.564 22.9139 135.399 22.9139L135.385 22.9277Z" fill="#e3e3e3"/>
    <path d="M138.374 25.3358V25.1771V24.9701V24.563V24.4043V24.149V23.9351C138.374 23.9282 138.374 23.7627 138.374 23.7627L138.361 23.4591V23.4246L138.381 23.3142C138.374 23.328 138.395 23.2038 138.395 23.2038C138.395 23.0451 138.292 22.983 138.203 22.9623C138.196 22.9623 138.093 22.9485 138.093 22.9485C137.996 22.9485 137.962 23.0037 137.907 23.0727L137.783 23.1969L137.673 23.3004L137.522 23.4591C137.515 23.4591 137.481 23.4798 137.481 23.4798C137.474 23.4936 137.426 23.5212 137.426 23.5212L137.385 23.5419L137.323 23.5971L137.234 23.6937L137.165 23.7282C137.151 23.7282 137.131 23.7075 137.103 23.673L136.972 23.5419L136.863 23.4108L136.808 23.3763L136.759 23.328L136.56 23.1417L136.478 23.0865L136.423 23.0589L136.354 22.9899C136.347 22.9899 136.21 22.9485 136.21 22.9485L136.086 22.9899L136.045 23.0313L136.024 23.0451L135.921 23.2038L135.942 23.3073L135.962 23.4039V23.5212V23.6868V23.9558L135.976 24.0248V24.2111L135.962 24.3077V24.5768L135.976 24.7769C135.976 24.7631 135.976 24.8459 135.976 24.8459V24.9149L135.969 25.0322V25.2047L135.976 25.3979L135.955 25.5842V25.6808C135.949 25.7981 136.017 25.8671 136.058 25.8947L136.21 25.9223C136.326 25.9223 136.423 25.8809 136.471 25.8119L136.512 25.667L136.498 25.5221L136.478 25.4462V25.4048V25.3082L136.464 25.184L136.485 25.0115V24.9149V24.8252C136.485 24.8114 136.478 24.7424 136.478 24.7424V24.6872L136.498 24.6113C136.498 24.6251 136.498 24.5699 136.498 24.5699V24.4871L136.478 24.425C136.478 24.4112 136.471 24.3146 136.471 24.3146L136.464 24.2594V24.1421L136.485 23.9351L136.471 23.7834V23.7282C136.471 23.7282 136.464 23.7144 136.464 23.7075L136.478 23.7213L136.656 23.88L136.732 23.9627L136.794 24.0386L136.828 24.0731L136.863 24.1076L136.911 24.1766C136.952 24.2387 137.021 24.3353 137.158 24.3353C137.295 24.3353 137.344 24.287 137.467 24.1145L137.577 24.011L137.598 23.9903L137.68 23.9144L137.77 23.8455C137.776 23.8455 137.818 23.8179 137.838 23.8041C137.845 23.8317 137.845 23.8593 137.845 23.8593V23.9627L137.859 24.1007C137.859 24.1214 137.866 24.287 137.866 24.287C137.859 24.3284 137.845 24.4043 137.845 24.5561L137.859 24.839V24.9218V25.0184V25.1702V25.3703V25.4393L137.838 25.5152L137.818 25.6601L137.886 25.8326C137.935 25.8809 137.99 25.9223 138.12 25.9223C138.285 25.9223 138.395 25.8257 138.395 25.6946L138.354 25.3289L138.374 25.3358Z" fill="#e3e3e3"/>
    <path d="M17.3354 11.1982C18.3387 8.23136 16.765 4.31921 12.6142 4.31921H1.95555C1.57758 4.31921 1.27521 4.6366 1.27521 5.01609V21.1476C1.27521 21.1959 1.28895 21.2304 1.29582 21.2787C1.36455 21.5961 1.62569 21.8376 1.95555 21.8376H13.5076C19.7681 21.8376 21.0395 14.2824 17.3354 11.1982ZM10.1952 7.62418C10.9993 7.62418 11.6521 8.28656 11.6521 9.08692C11.6521 9.88729 10.9993 10.5497 10.1952 10.5497C9.3912 10.5497 8.75209 9.89419 8.75209 9.08692C8.75209 8.27966 9.39807 7.62418 10.1952 7.62418ZM10.1952 18.374C9.25376 18.374 8.49095 17.6012 8.49095 16.6628C8.49095 15.7245 9.25376 14.9586 10.1952 14.9586C11.1367 14.9586 11.9064 15.7176 11.9064 16.6628C11.9064 17.6081 11.1367 18.374 10.1952 18.374Z" fill="#e3e3e3"/>
    <path d="M135.268 20.1334L129.406 13.213L135.268 6.28564C135.399 6.13385 135.344 6.00966 135.138 6.00966H128.162C127.963 6.00966 127.688 6.14075 127.558 6.28564L124.692 9.66651V6.56163C124.692 6.26495 124.438 6.00276 124.135 6.00276H118.679C118.37 6.00276 118.122 6.26495 118.122 6.56163V8.15547C117.428 7.431 115.318 5.51978 112.336 5.51978C109.353 5.51978 106.556 7.3551 105.312 10.0046V6.56853C105.312 6.25805 105.058 6.00276 104.756 6.00276H99.2994C98.9833 6.00276 98.7359 6.25805 98.7359 6.56853V19.0294L95.4716 15.3105C99.5193 13.2958 98.7496 5.99586 93.1625 5.99586H83.7202C83.411 5.99586 83.1567 6.25805 83.1567 6.55473V12.9301C82.8818 12.454 82.5382 12.0193 82.1053 11.6605C82.9299 9.21803 81.638 6.00276 78.2157 6.00276H69.4399C69.1238 6.00276 68.8764 6.25805 68.8764 6.56853V19.1536L65.4885 15.3174C69.543 13.3027 68.7733 6.00276 63.1863 6.00276H53.7371C53.4279 6.00276 53.1736 6.26495 53.1736 6.56163V6.58923C53.8677 8.03817 54.225 9.72861 54.225 11.6674C54.225 13.075 53.8677 14.4066 53.1736 15.6279V19.8643C53.1736 20.1679 53.4279 20.4232 53.7371 20.4232H57.9222C58.2315 20.4232 58.4789 20.1679 58.4789 19.8643V16.4006C58.4789 16.0833 58.6507 16.0212 58.8568 16.2557L62.1417 20.0023C62.3548 20.2369 62.774 20.4232 63.0832 20.4232H69.4193C69.4193 20.4232 69.4262 20.4232 69.4331 20.4232C69.4331 20.4232 69.4331 20.4232 69.4468 20.4232H78.9578C81.0057 20.4232 82.4077 19.4434 83.1636 18.098V19.8643C83.1636 20.1679 83.4179 20.4232 83.7271 20.4232H87.9054C88.2146 20.4232 88.4689 20.1679 88.4689 19.8643V16.4006C88.4689 16.0833 88.6338 16.0212 88.8468 16.2557L92.1317 20.0023C92.3379 20.2369 92.764 20.4232 93.0663 20.4232H104.763C105.072 20.4232 105.319 20.1679 105.319 19.8643V16.649C106.563 19.2916 109.23 21.1201 112.343 21.1201C115.456 21.1201 117.49 19.2916 118.129 18.5396V19.8643C118.129 20.1679 118.383 20.4232 118.686 20.4232H124.142C124.451 20.4232 124.699 20.1679 124.699 19.8643V16.7387L127.564 20.1265C127.702 20.2783 127.97 20.4094 128.169 20.4094H135.144C135.344 20.4094 135.406 20.2783 135.275 20.1265L135.268 20.1334ZM61.9081 12.3298C61.1315 12.3298 60.5062 11.695 60.5062 10.9223C60.5062 10.1495 61.1315 9.51472 61.9081 9.51472C62.6846 9.51472 63.3169 10.1426 63.3169 10.9223C63.3169 11.7019 62.6846 12.3298 61.9081 12.3298ZM76.2159 8.72815C76.8687 8.72815 77.4047 9.26633 77.4047 9.9287C77.4047 10.5911 76.8618 11.1293 76.2159 11.1293C75.5699 11.1293 75.0201 10.5911 75.0201 9.9287C75.0201 9.26633 75.5561 8.72815 76.2159 8.72815ZM76.2159 17.5874C75.4393 17.5874 74.8139 16.9526 74.8139 16.1729C74.8139 15.3933 75.4393 14.7654 76.2159 14.7654C76.9924 14.7654 77.6246 15.3933 77.6246 16.1729C77.6246 16.9526 76.9924 17.5874 76.2159 17.5874ZM91.8843 12.3298C91.1147 12.3298 90.4824 11.695 90.4824 10.9223C90.4824 10.1495 91.1147 9.51472 91.8843 9.51472C92.654 9.51472 93.2931 10.1426 93.2931 10.9223C93.2931 11.7019 92.6609 12.3298 91.8843 12.3298ZM115.985 14.8344C115.779 14.6136 115.456 14.6205 115.256 14.8482C115.256 14.8482 115.195 14.9172 114.906 15.0828C114.624 15.2346 114.294 15.3243 113.944 15.3243C112.844 15.3243 111.951 14.4273 111.951 13.3303C111.951 12.2332 112.844 11.3293 113.944 11.3293C114.219 11.3293 114.473 11.3845 114.72 11.4811C115.078 11.6398 115.236 11.8123 115.236 11.8123C115.442 12.0469 115.779 12.0469 115.985 11.8123L118.108 9.50782V17.1389L115.985 14.8344Z" fill="#e3e3e3"/>
    <path d="M25.5476 14.8068C25.2383 14.8068 24.9841 14.5516 24.9841 14.2342V13.2682C24.9841 12.9646 25.2383 12.7093 25.5476 12.7093H28.7844C29.0936 12.7093 29.3479 12.4471 29.3479 12.1367V10.5704H30.8323C31.059 9.12838 31.5332 7.81743 32.2273 6.62378V6.58238C32.2273 6.27189 31.9799 6.0166 31.6707 6.0166H20.9226C20.6134 6.0166 20.3591 6.27189 20.3591 6.58238V19.8712C20.3591 20.1748 20.6134 20.4301 20.9226 20.4301H33.1069C31.8562 18.8708 31.0865 16.9803 30.7979 14.8068H25.5476Z" fill="#e3e3e3"/>
    <path d="M50.2942 4.39518C48.3425 2.69785 45.7861 1.84229 42.6249 1.84229C39.4637 1.84229 36.8523 2.88414 34.77 4.94026C32.6809 7.00328 31.6364 9.61137 31.6364 12.7645C31.6364 15.9177 32.6328 18.6845 34.6257 20.6578C36.6187 22.6174 39.285 23.5902 42.6455 23.5902C43.7038 23.5902 44.6316 23.5005 45.4287 23.3073C46.2328 23.121 46.9062 22.8933 47.456 22.6312C47.456 22.6312 49.0297 22.0171 48.6724 21.0442C48.3082 20.0369 47.456 20.5543 47.456 20.5543C46.8581 20.8441 46.0953 21.0649 45.1607 21.2236C44.233 21.3754 43.3877 21.4444 42.6386 21.4444C40.2059 21.4444 38.213 20.6923 36.6736 19.1744C35.1274 17.6496 34.3577 15.5106 34.3577 12.7369C34.3577 10.1703 35.1824 8.06584 36.8111 6.4099C38.4466 4.74017 40.3708 3.9122 42.5905 3.9122C45.0301 3.9122 47.0024 4.61597 48.4868 6.01662C49.9781 7.41036 50.7203 9.36988 50.7203 11.8814C50.7203 12.5783 50.5416 13.3579 50.1911 14.2204C49.8338 15.0898 49.1947 15.5175 48.2875 15.5175C47.8958 15.5175 47.6072 15.4071 47.4285 15.1795C47.2498 14.9449 47.1674 14.5171 47.1674 13.8892C47.1674 12.8404 47.1811 10.8119 47.2086 7.82435H44.7003V8.9007C44.5079 8.56952 44.1986 8.29353 43.7794 8.07964C43.3671 7.86574 42.8586 7.75535 42.2675 7.75535C40.7144 7.75535 39.5324 8.23143 38.7078 9.18359C37.8694 10.1358 37.4571 11.3501 37.4571 12.8128C37.4571 14.5585 37.8419 15.8004 38.6322 16.5525C39.4225 17.2977 40.3777 17.6634 41.5185 17.6634C42.5493 17.6634 43.3327 17.4909 43.8344 17.1321C44.3498 16.7802 44.7278 16.2006 44.982 15.414C45.1401 16.2282 45.4837 16.8078 46.0129 17.1321C46.5351 17.4702 47.3392 17.6358 48.4181 17.6358C49.8681 17.6358 51.0295 17.0079 51.9092 15.759C52.7888 14.5171 53.2286 13.144 53.2286 11.6606C53.2286 8.50742 52.2459 6.07872 50.2873 4.38138L50.2942 4.39518ZM44.7003 12.4196V12.8749C44.7003 13.6684 44.4598 14.3308 43.9787 14.8552C43.4977 15.3864 42.886 15.6417 42.1232 15.6417C41.3604 15.6417 40.7832 15.3519 40.4877 14.7448C40.199 14.1445 40.0478 13.5304 40.0478 12.8956C40.0478 11.771 40.2403 10.9568 40.632 10.4393C41.0237 9.92186 41.5735 9.65277 42.2813 9.65277C43.1197 9.65277 43.7244 9.85977 44.1162 10.2668C44.5079 10.6808 44.7003 11.2328 44.7003 11.9228V12.4196Z" fill="#e3e3e3"/>
  </g>
  <defs>
    <clipPath id="clip0_22_60">
      <rect width="141.429" height="30" fill="white" transform="translate(0.285645)"/>
    </clipPath>
  </defs>
</svg>
