<svg xmlns="http://www.w3.org/2000/svg" viewBox="0 0 149.189 48.572" class="svg">
  <defs>
    <clipPath id="a">
      <path data-name="Rectangle 2025" fill="none" d="M0 0h48.572v149.189H0z"/>
    </clipPath>
  </defs>
  <g data-name="Group 4516">
    <g data-name="Group 4512">
      <g data-name="Group 4513">
        <g data-name="Group 4512" clip-path="url(#a)" transform="rotate(90 74.594 74.595)">
          <path fill="var(--color-primary)" data-name="Path 43939" d="M9.591 149.189c-.565-.1-1.137-.176-1.7-.306a10.168 10.168 0 0 1-7.706-8.258 10.332 10.332 0 0 1 2.36-8.768l.082-.1a.7.7 0 0 1 .077-.051l2.07 1.707c-.455.7-.952 1.348-1.315 2.061a7.084 7.084 0 0 0 1.653 8.538.643.643 0 0 0 .39.149q4.969.012 9.939 0a.729.729 0 0 0 .436-.19 7.264 7.264 0 0 0 1.879-8.082 9.245 9.245 0 0 0-1.371-2.468l2.015-1.633c.327.442.677.847.952 1.3a10.341 10.341 0 0 1 .652 9.966 9.819 9.819 0 0 1-8.44 6.08 1.322 1.322 0 0 0-.205.057Z"/>
          <path fill="var(--color-primary)" data-name="Path 43940" d="M.305 100.511c0-.853-.008-1.683.011-2.513 0-.092.14-.217.244-.266q2.761-1.307 5.53-2.6l8.869-4.155c.072-.034.141-.073.26-.134-.635-.307-1.227-.595-1.82-.878Q6.977 86.898.552 83.836a.379.379 0 0 1-.253-.407c.014-.713.005-1.426.005-2.158h20.32v4.693h-9.1a2.324 2.324 0 0 0 .227.158q4.321 2.1 8.647 4.185a.376.376 0 0 1 .255.4q-.019 1.31 0 2.62a.393.393 0 0 1-.272.422q-4.37 2.031-8.73 4.081a.248.248 0 0 0-.131.114h9.1v2.567Z"/>
          <path fill="var(--color-primary)" data-name="Path 43941" d="M10.489 21.062a10.456 10.456 0 1 0 10.45 10.616 10.465 10.465 0 0 0-10.45-10.616m5.317 15.79a.516.516 0 0 1-.334.116q-5 .012-10 0a.55.55 0 0 1-.337-.116 7.072 7.072 0 0 1-1.723-8.441 7.547 7.547 0 0 1 1.714-2.2.7.7 0 0 1 .429-.124c1.65-.008 3.3-.005 4.954-.005 1.577 0 3.153.008 4.73-.008a1.025 1.025 0 0 1 .8.326 6.936 6.936 0 0 1 1.811 7.47 6.891 6.891 0 0 1-2.045 2.982"/>
          <path fill="var(--color-primary)" data-name="Path 43942" d="M36.419 38.458a10.462 10.462 0 1 0 10.466 10.5 10.432 10.432 0 0 0-10.466-10.5m5.338 15.785a.582.582 0 0 1-.371.1q-2.491.008-4.983.005-2.476 0-4.951-.005a.6.6 0 0 1-.374-.1 7.025 7.025 0 0 1-2.316-4.019 6.925 6.925 0 0 1 1.958-6.3 1.372 1.372 0 0 1 1.092-.458c3.174.021 6.349.013 9.523.005a.729.729 0 0 1 .55.229 7.03 7.03 0 0 1-.129 10.542"/>
          <path fill="var(--color-primary)" data-name="Path 43943" d="M46.578 17.222c0 .691.008 1.363-.009 2.034a.529.529 0 0 1-.186.3q-2.534 2.423-5.069 4.834-3.62 3.446-7.238 6.895a2.276 2.276 0 0 0-.149.185h12.635v2.542H26.249c0-.69 0-1.358.008-2.03a.435.435 0 0 1 .151-.253q3.431-3.279 6.868-6.552l5.367-5.111a2.657 2.657 0 0 1 .251-.189l-.044-.1H26.262v-2.555Z"/>
          <path fill="var(--color-primary)" data-name="Path 43944" d="M8.053 14.637h12.569v2.547H.305a9.127 9.127 0 0 0-.01-1.2 1.742 1.742 0 0 1 .7-1.616c2.583-2.413 5.122-4.866 7.683-7.302q2.089-1.99 4.181-3.977c.03-.029.055-.062.119-.135H.328V.384h20.317a6.476 6.476 0 0 0 .007.953 2.136 2.136 0 0 1-.844 2.028c-2.715 2.514-5.372 5.091-8.05 7.644q-1.78 1.7-3.564 3.391a1.28 1.28 0 0 1-.207.133l.067.1"/>
          <path fill="var(--color-primary)" data-name="Path 43945" d="M13.788 71.205c0-1.037.024-2.037-.005-3.035a6.144 6.144 0 0 0-2.677-5.1 7.037 7.037 0 0 0-5.654-1.08 6.334 6.334 0 0 0-5.138 6.117C.274 70.655.306 73.2.306 75.746c0 .053.008.1.013.171h20.307v-4.712Zm-2.569-.188a.94.94 0 0 1-.032.182H2.872v-.471c.008-.811.011-1.621.022-2.431a2.245 2.245 0 0 1 .087-.526c.218-.827.347-.927 1.192-.927 2.061 0 4.122 0 6.183-.005.229 0 .4.055.466.271a6.05 6.05 0 0 1 .376 1.35c.061.848.018 1.7.016 2.556"/>
          <path fill="var(--color-primary)" data-name="Path 43946" d="M48.487 83.445a11.64 11.64 0 0 0-1.356.005.966.966 0 0 1-1.171-.698 5.7 5.7 0 0 0-1.479-2c-.545.571-1.071 1.124-1.6 1.671l.813 1H29.241c.255-.369.482-.69.74-1.061l-1.691-1.56a7.194 7.194 0 0 0-1.6 2.3.494.494 0 0 1-.558.347c-.621-.025-1.248-.01-1.882-.01v2.543h1.882a.608.608 0 0 1 .039.084l.016.221a7.9 7.9 0 0 0 2.082 5.18 4.636 4.636 0 0 0 4.506 1.508 5.846 5.846 0 0 0 3.111-1.708c.313.282.587.558.895.79a7.771 7.771 0 0 0 1.008.642 5.449 5.449 0 0 0 6.58-.848 7.7 7.7 0 0 0 2.2-4.643c.055-.4.076-.811.118-1.245h1.887v-2.5a.5.5 0 0 0-.084-.018m-13.988 5.417c-.082.008-.161.018-.242.018-1.532 0-3.066 0-4.6.008a.365.365 0 0 1-.4-.258 7.239 7.239 0 0 1-.563-2.637h5.8Zm9.055-.142a.322.322 0 0 1-.232.155c-2 .008-4 .008-6.017.008v-2.885h6.828a6.518 6.518 0 0 1-.579 2.722"/>
          <path fill="var(--color-primary)" data-name="Path 43947" d="m28.137 63.679 1.891 1.692a13.151 13.151 0 0 0-1 1.49 4.621 4.621 0 0 0 0 4.224.341.341 0 0 0 .347.248c1.7-.011 3.407-.006 5.11-.007a1.036 1.036 0 0 0 .121-.017l-.148-.538a5.848 5.848 0 0 1 4.267-7.021 6.284 6.284 0 0 1 7.771 4.369 8.046 8.046 0 0 1-1.538 7.675c-.089.116-.2.216-.321.349l-2.174-1.651c.255-.286.511-.545.735-.83a4.536 4.536 0 0 0 .551-4.843.412.412 0 0 0-.45-.288c-1.924.01-3.848.006-5.773.006h-.265c.09.614.226 1.2.253 1.791a5.545 5.545 0 0 1-1.58 4.462 5.381 5.381 0 0 1-3.19 1.434 5.479 5.479 0 0 1-4.723-1.4 6.562 6.562 0 0 1-1.86-3.513 8.525 8.525 0 0 1 1.114-6.508c.243-.384.557-.73.862-1.124"/>
          <path fill="var(--color-primary)" data-name="Path 43948" d="m44.634 12.634-2.177-1.654c.2-.216.389-.421.577-.627a4.593 4.593 0 0 0 .689-5.094.34.34 0 0 0-.35-.242c-2 .009-4 .006-5.995.006-.041 0-.083.007-.159.013.056.24.114.468.161.7a6.525 6.525 0 0 1-.191 3.546 5.056 5.056 0 0 1-4.518 3.441 5.669 5.669 0 0 1-3.29-.469 5.758 5.758 0 0 1-3.016-3.704 8.479 8.479 0 0 1 1.024-7.423c.216-.327.491-.621.752-.951l1.95 1.744a4.613 4.613 0 0 0-1.4 2.3 4.717 4.717 0 0 0 .33 3.344.347.347 0 0 0 .349.248c1.683-.008 3.365 0 5.048-.006a1.246 1.246 0 0 0 .153-.018 12.948 12.948 0 0 1-.244-1.3 5.911 5.911 0 0 1 5.04-6.4 6.338 6.338 0 0 1 7.191 4.732 8.034 8.034 0 0 1-1.684 7.558c-.065.081-.143.153-.24.256"/>
          <path fill="var(--color-primary)" data-name="Path 43949" d="m2.219 45.528 2 1.788a1.533 1.533 0 0 0-.32.187 4.755 4.755 0 0 0-.809 5.406.46.46 0 0 0 .316.227c1.7.014 3.407.01 5.11.009a.719.719 0 0 0 .12-.02c-.083-.407-.2-.8-.24-1.206a5.9 5.9 0 0 1 5.021-6.49 6.355 6.355 0 0 1 7.248 4.907 8.242 8.242 0 0 1-1.942 7.661l-2.192-1.664c.327-.392.669-.739.938-1.135a4.478 4.478 0 0 0 .29-4.614.435.435 0 0 0-.318-.218c-2.008-.013-4.017-.009-6.025-.008a.814.814 0 0 0-.1.012c.087.577.2 1.141.251 1.711a6.117 6.117 0 0 1-.3 2.519 4.722 4.722 0 0 1-3.042 3.106 5.8 5.8 0 0 1-5.842-.793 6.11 6.11 0 0 1-2.077-3.425 8.492 8.492 0 0 1 1.287-7.237c.109-.154.237-.3.359-.439.074-.087.154-.168.267-.284"/>
          <path fill="var(--color-primary)" data-name="Path 43950" d="M.318 127.163v-4.693h17.751v-7.557h2.555v12.25Z"/>
          <path fill="var(--color-primary)" data-name="Rectangle 2024" d="M.326 105.877h20.297v4.678H.326z"/>
        </g>
      </g>
    </g>
  </g>
</svg>
