<svg xmlns="http://www.w3.org/2000/svg" style="display:block" viewBox="0 0 606 474">
  <path fill="var(--color-primary)" d="M0 0h48l1 107 6-8c13.942-12.052 30.895-15.058 48.83-14.168 20.258 1.572 39.465 13.706 52.455 28.828 12.985 16.988 17.88 35.422 17.965 56.465.03 1.883.03 1.883.063 3.805.033 8.151-.955 15.276-3.313 23.07l-.644 2.355C166.634 212.748 158.76 223.446 149 233l-2.363 2.46c-13.756 13.548-32.08 18.702-50.887 18.79-1.622.03-1.622.03-3.277.063-15.411.074-28.302-5.76-39.512-16.262C51 236 51 236 49 233l-1 18H0V0Z" transform="translate(397 108)"/>
  <path fill="var(--color-primary)" d="m0 0 3.658-.035c17.908.057 34.314 4.995 48.904 15.41l2.59 1.84c14.518 10.939 24.126 26.62 28.41 44.16l.527 1.905c5.415 21.13 2.322 45.633-8.276 64.657-13.426 21.517-32.703 34.64-57.25 40.438-22.803 4.158-47.184-.079-66.45-13.094-18.362-13.722-31.922-32.842-35.308-55.886-1.977-24.65 1.124-48.996 16.957-68.766C-48.491 10.28-27.06-.26 0 0Z" transform="translate(129.438 192.625)" />
  <path fill="var(--color-primary)" d="m0 0 2.672.008c8.719.139 16.923 1.273 24.765 5.304-1.419 9.835-3.207 19.567-5.125 29.313l-.84 4.303c-.675 3.462-1.354 6.923-2.035 10.385-10-2-10-2-12.547-2.552-4.056-.742-8.09-.715-12.203-.761l-2.593-.088c-8.8-.087-17.28 3.2-23.657 9.4-13.571 16.497-14.249 39.045-14.414 59.438a3477.738 3477.738 0 0 0-.187 16.183c-.047 4.703-.108 9.406-.167 14.108-.088 7.09-.158 14.181-.231 21.272h-48v-163h48l1 35 4-10C-35.584 15.87-25.555 6.52-12.863 1.175-8.525.04-4.467-.028 0 0Z" transform="translate(344.563 192.688)"/>
  <path fill="var(--color-background)" d="M0 0c7.656 4.668 12.52 13.396 15.305 21.715 2.535 11.98 1.66 24.207-4.813 34.738C5.39 63.621-1.649 69.026-10.156 71.527c-11.648 1.936-23.375 1.779-33.23-5.222-8.035-6.56-13.663-15.252-15.063-25.637-.872-12.73-.711-22.866 7.886-32.98C-37.307-6.557-17.026-9.947 0 0Z" transform="translate(505 244)" />
  <path fill="var(--color-background)" d="m0 0 2.316-.049c9.223-.008 16.737 3.536 23.809 9.361C34.374 17.79 37.73 26.66 37.602 38.407c-.409 9.703-4.387 17.248-10.727 24.469-9.007 7.984-17.914 11.138-29.934 10.84-10.624-1.12-18.89-6.408-25.816-14.403-5.973-8.952-8.163-19.343-7-30 2.64-11.447 8.932-19.049 18.473-25.59C-11.611.493-6.484-.027 0 0Z" transform="translate(129.875 240.688)" />
</svg>
