<svg xmlns="http://www.w3.org/2000/svg" viewBox="0 0 251.012 28.841">
  <path fill="var(--color-primary)" d="M52.414 7.739v6.023h-6.71V7.739h-3.641v15.22h3.641v-6.11h6.71v6.109h3.639V7.739Zm26.727 3.911 2.2 4.938h-4.394Zm-1.626-4.022-7.09 15.331h3.71l1.511-3.414h7l1.512 3.414h3.805l-7.09-15.331Zm24.979.108h3.641v15.221h-3.641zm26.919 7.395c1.773 0 2.789-.87 2.789-2.152v-.045c0-1.436-1.088-2.173-2.861-2.173h-3.613v4.37Zm-7.323-7.393h7.562a6.949 6.949 0 0 1 4.821 1.543 4.577 4.577 0 0 1 1.416 3.478v.042a4.77 4.77 0 0 1-3.544 4.72l4.041 5.435h-4.261l-3.545-4.869h-2.854v4.87h-3.64Zm32.895 7.654v-.044c0-4.326 3.661-7.872 8.673-7.872a9.565 9.565 0 0 1 6.5 2.089l-2.294 2.545a6.379 6.379 0 0 0-4.324-1.545 4.75 4.75 0 0 0-4.75 4.741v.043a4.752 4.752 0 0 0 4.668 4.834q.17 0 .342-.006a6.167 6.167 0 0 0 3.427-.915v-2.179h-3.661v-2.887h7.185v6.61a11.28 11.28 0 0 1-7.067 2.414c-5.15 0-8.7-3.327-8.7-7.829m40.577 1.197-2.2-4.938-2.2 4.938Zm-3.827-8.96h3.359l7.09 15.331h-3.805l-1.511-3.414h-7l-1.511 3.414h-3.71Zm24.981.108h3.641v15.221h-3.641z"/>
  <path fill="var(--color-primary)" d="M216.715 7.736h3.639v15.223h-3.639zm19.592.003h3.36l7.753 9.37v-9.37h3.592v15.22h-3.1l-8.01-9.677v9.677h-3.594ZM16.857 28.841c-.028-.22-.075-.44-.082-.661-.2-6.451-.405-12.9-.575-19.352a8.425 8.425 0 0 1 7.413-8.71 18.107 18.107 0 0 1 5.709.327c.167.027.376.35.409.56a7.836 7.836 0 0 1-1.364 5.7 11.385 11.385 0 0 1-5.15 4.119 1.049 1.049 0 0 1-.257.071c-.036 0-.077-.032-.231-.1.189-.186.336-.353.506-.494a12.108 12.108 0 0 0 3.922-4.9 15.126 15.126 0 0 0 .6-2.544c.029-.154-.185-.5-.313-.516-2.239-.238-4.479-.321-6.515.87A6.332 6.332 0 0 0 17.721 8.8c-.216 6.427-.394 12.856-.588 19.284-.008.252-.036.5-.054.756h-.222m-3.493-13.103c-4.478-2.51-7.827-1.006-10.734 2.43a6.854 6.854 0 0 0 3.8 2.266c1.434.321 2.907.464 4.313.678-3.209 1.571-8.66.953-10.743-3.136 1.688-2.161 3.548-4.1 6.35-4.846a6.538 6.538 0 0 1 7.014 2.608"/>
</svg>
