<svg version="1.0" xmlns="http://www.w3.org/2000/svg"
 width="450.000000pt" height="115.000000pt" viewBox="0 0 450.000000 115.000000"
 preserveAspectRatio="xMidYMid meet" class="svg" fill="var(--color-primary)">
<g transform="translate(0.000000,115.000000) scale(0.100000,-0.100000)"
fill="inherit" stroke="none">
<path d="M152 659 l3 -354 104 -3 c251 -7 381 50 450 197 23 49 26 69 26 161
0 95 -3 111 -28 162 -34 70 -100 130 -176 159 -47 19 -81 23 -219 27 l-162 4
2 -353z m289 220 c94 -20 159 -110 159 -222 0 -64 -28 -133 -69 -170 -47 -42
-93 -57 -178 -57 l-63 0 0 230 0 230 50 0 c27 0 72 -5 101 -11z"/>
<path d="M2650 889 l0 -120 -37 28 c-50 38 -159 45 -220 15 -92 -47 -139 -147
-131 -276 10 -148 97 -236 233 -236 61 0 131 28 143 58 5 12 8 7 12 -18 l5
-35 60 0 60 0 3 353 2 352 -65 0 -65 0 0 -121z m-69 -185 c62 -31 86 -140 50
-220 -24 -53 -55 -74 -107 -74 -75 0 -124 62 -124 155 0 120 88 188 181 139z"/>
<path d="M3900 655 l0 -355 65 0 65 0 0 83 c0 75 2 86 24 106 l24 23 71 -106
71 -106 75 0 c41 0 75 2 75 5 0 3 -43 68 -97 143 -53 75 -96 142 -97 148 -1 6
38 59 87 117 48 58 87 108 87 111 0 3 -31 6 -69 6 l-70 0 -88 -106 -88 -107
-3 197 -2 196 -65 0 -65 0 0 -355z"/>
<path d="M800 565 l0 -266 68 3 67 3 5 175 c3 96 9 181 14 189 13 19 70 41
111 41 l35 0 0 60 0 60 -41 0 c-48 0 -76 -13 -106 -48 l-23 -27 0 38 0 37 -65
0 -65 0 0 -265z"/>
<path d="M1274 816 c-53 -24 -110 -83 -134 -138 -29 -67 -25 -180 8 -244 27
-52 90 -107 141 -122 155 -47 311 37 341 184 26 122 -20 240 -114 299 -43 26
-60 30 -130 33 -54 1 -92 -3 -112 -12z m165 -111 c53 -27 78 -144 47 -219 -41
-99 -171 -103 -210 -6 -32 80 -14 190 38 225 26 19 89 19 125 0z"/>
<path d="M1700 475 l0 -355 65 0 65 0 0 122 0 121 23 -21 c32 -30 71 -42 135
-42 101 1 171 49 207 144 13 35 16 67 13 139 -3 79 -8 100 -31 140 -37 63 -93
99 -162 105 -74 6 -119 -4 -155 -34 l-30 -26 0 31 0 31 -65 0 -65 0 0 -355z
m310 230 c53 -28 78 -108 59 -193 -14 -67 -53 -102 -113 -102 -77 0 -126 61
-126 155 0 120 88 188 180 140z"/>
<path d="M2985 812 c-51 -25 -99 -75 -121 -127 -26 -62 -24 -188 5 -247 28
-58 88 -113 138 -127 91 -26 198 -7 251 42 21 19 62 87 62 102 0 3 -28 5 -62
5 -53 0 -67 -4 -85 -24 -62 -65 -193 -19 -193 68 l0 26 176 0 177 0 -6 66 c-8
84 -47 158 -105 199 -38 26 -54 30 -120 33 -59 2 -86 -2 -117 -16z m174 -109
c17 -16 33 -40 37 -55 l6 -28 -112 0 -112 0 7 28 c19 78 116 109 174 55z"/>
<path d="M3503 805 c-88 -44 -133 -128 -133 -245 0 -158 99 -260 252 -260 120
0 191 47 222 148 7 21 5 22 -63 22 -39 0 -71 -4 -71 -10 0 -24 -45 -50 -86
-50 -60 0 -99 35 -113 102 -26 120 27 208 124 208 35 0 85 -35 85 -60 0 -6 27
-10 66 -10 l67 0 -7 32 c-25 125 -208 190 -343 123z"/>
</g>
</svg>
