<svg xmlns="http://www.w3.org/2000/svg" viewBox="0 0 492 556">
  <path fill="var(--color-primary)" d="m0 0 8 1c4.67.985 9.336 1.986 14 3l6.125 1.063C33 6 33 6 37 8l8 2v3l4 1c12.608 3.152 4.462 29.615 2 38-.86 3.061-1.714 6.124-2.563 9.188l-1.273 4.542c-1.02 3.739-1.943 7.503-2.852 11.27C43 82 43 82 41 84c0 13.03 8.603 13.088 20 14l5 3c9.324.653 9.324.653 11.75-6.688C79.22 88.07 81.222 86.132 86 82l5-5 5-5 3.688-4.25C103 64 103 64 105 63l2-4 10-8a792.894 792.894 0 0 0 7-8c9.027-4.514 18.966-2.388 28 1l6.25 1c5.75 1 5.75 1 9.75 4 4.657.729 9.324 1.4 14 2l1 1 5.813.938c30.398 5.22 12.176 49.527 6.437 69-2.601 10.534-3.116 13.415 7.75 14.062a878.56 878.56 0 0 1 12 5l7 1 4 2 6.313.938C239 146 239 146 246 149l7 2c4 5 4 5 4 7l4 2c.682 13.295.682 13.295-2 20l-.438 6.063C258 192 258 192 255 196c-2.189 4.378-2.982 8.21-4 13-.959 4.01-1.962 8.01-3 12l-1.75 6.813c-2.296 6.312-4.244 8.896-9.25 13.187l-4 5-6 5c-5.073 4.903-5.073 4.903-9.375 10.375-3.709 4.51-7.427 8.588-11.625 12.625l-5 5c-8.712 8.712-30.56-.56-40-4-10.159 2.032-10.258 12.07 0 15l8.25 2.438a669.037 669.037 0 0 0 15 4.25C189 298 189 298 194 300l6.563.438C207 301 207 301 211 304l7 3v2h2v5h2c3.383 6.767.738 14.612-2 21l-1 7-3 5c-.409 4.66-.745 9.328-1 14-1 3-1 3-4 3-.086 3.666-.08 7.334 0 11-1 3-1 3-3 3l-1.313 4.625c-1.659 5.284-3.34 9.702-8.687 12.375l-2 4-5 3-4 6h-2l-1 4c-6 5-6 5-8 5l-1 4h-3l-1 4c-16.986 14.155-30.435 11.825-50.125 5.313-8.05-2.722-8.05-2.722-7.875 6.687l-3 6-2 7-5 5-3.375 3.938C96.291 462.673 92.814 465.772 89 469c-3.229 3.944-3.229 3.944-5 9l-5 2c-2.372 2.029-2.372 2.029-3 6l-6 2-5 6c-4.29 1.43-8.297 1.171-12.813 1.188l-5.332.042C36 494.715 36 494.715 36 491a382.3 382.3 0 0 0-11-1c-3-1-3-1-4-5h-6l-8-4c-3.332-.675-6.665-1.341-10-2-18.135-6.742-15.51-21.154-10.371-37.258 2.03-7.023 3.23-14.158 4.476-21.355C-8 416-8 416-6 412c4.513-12.594 4.686-16.487-9.395-18.36C-20 393-20 393-28 390c-11.635 0-9.808.771-12 11-5.105 9.776-5.105 9.776-10 11l-2 5a836.723 836.723 0 0 1-8 5 142.3 142.3 0 0 0-6 7c-4 4-4 4-7 4l-1 4a312.431 312.431 0 0 1-7 6l-5 6c-14.68 6.291-28.26.82-42.813-3.875-5.49-1.624-10.783-2.914-16.375-4.063C-167.524 436.188-174.02 422.387-166 401l1-8 3-2c1.009-4.665 2.008-9.332 3-14l3-3a331.36 331.36 0 0 0 1-9l2-3c2.476-8.98 2.476-8.98-6-9l-5-3a798.165 798.165 0 0 0-11-2l-3-2-6.375-.938C-191 344-191 344-196 341a697.452 697.452 0 0 0-11-2c-8.786-2.571-8.786-2.571-10-5l-3-1v-2h-2c-.231-4.829-.306-9.666-.313-14.5l-.05-8.156C-222 301-222 301-219 293c.68-4.331 1.346-8.665 2-13 1.749-6.677 4.1-12.745 7-19l3-7c3-5 3-5 6.438-8 7.65-6.707 14.254-14.4 21-22 2.753-3.092 5.634-6.072 8.562-9l4.438-4.813c7.532-5.67 14.97-6.483 23.562-2.187l4.938.938C-133 210-133 210-128 213c13.911 1.376 20.767-13.84 5-16v-2c-4.996-.695-9.997-1.36-15-2l-5-2-6.813-1.438C-157 188-157 188-165 185l-7-1c-6.979-4.687-23.983-36-8-36 .674-3.999 1.34-7.999 2-12l2.063-6.688c1.632-5.32 2.365-9.834 2.937-15.312l3-8 2-7c5.5-9.167 5.5-9.167 11-11l2-4a2080.25 2080.25 0 0 1 10-8 563.543 563.543 0 0 0 10-10l4-4 2-4c8.068-8.068 14.383-8.54 25-5l6.188.5C-89 54.258-89 54.258-89 58c9.748.737 9.748.737 14-7h2l1-5c4.82-7.23 7.36-10.634 15-15l1-3 5-4c5.205-5.205 8.705-9.41 12-16l5-3 2.875-4.688C-26.783-3.341 0-10.393 0 0Zm-23.063 28.938C-24 33-24 33-26 34c-3.434 11.19-6.302 22.455-8.563 33.938C-37.017 80-37.017 80-40 80v4c-17-.25-17-.25-17-3-5.79-2.206-5.79-2.206-11.313-2.375C-74.088 77.99-77.745 76.335-83 74l-5.125-.438c-7.419-.71-13.843-3.156-20.875-5.562-10.312 0-9.286 8.43-11 17l-2 6-.375 4.313c-.625 4.687-.625 4.687-2.563 9-10.076 22.9 1.917 27.17 22.938 28.687l2 2c5.145 1.203 9.708 2 15 2v2a592.1 592.1 0 0 0 13 4l1 1h9v2l5 4c.73 7.67-.23 11.614-3 19l-.5 5.625C-61 180-61 180-64 186a414.96 414.96 0 0 0-2 10c-.97 3.716-1.97 7.425-3 11.125A761.383 761.383 0 0 0-74 226c-2.5 8.93-21.104 25.687-26 11a808.167 808.167 0 0 0-14-2l-1-2a997.728 997.728 0 0 0-15-4l-1-1-6.25-.938C-144 226-144 226-149 224c-12.531 0-12.497 18.061-12 28h-2c-2.495 5.34-2.495 5.34-2 13h-2c-4.116 12.348-3.626 18.643 9 21l5 2 6.313.5C-141 289-141 289-141 291c6.572 2.03 6.572 2.03 11.75 2.75 15.188 3.038 48.056 13.444 26.25 35.25-.453 4.437-.903 8.874-1.305 13.316C-105 347-105 347-108 355c-6.238 17.808-6.238 17.808 5 29l4.313 2.188c5.512 2.131 10.856 2.925 16.687 3.812l5 2c3.332.674 6.665 1.342 10 2l1 1c9.042.931 9.042.931 9.875-6.5.954-5.514 2.32-10.238 4.125-15.5l1.063-5.438C-50 363-50 363-48 361c1.55-5.888 2.9-11.814 4.27-17.746C-37.374 320.28-26.927 321.585-6 329c9.594 2.732 19.209 5.093 29 7a1121.526 1121.526 0 0 1 16 4l5.75 1.438C48.664 342.875 59.884 357 53 357a9060.74 9060.74 0 0 0-2 13l-3 7a561.422 561.422 0 0 0-2 14c-2.607 17-2.607 17-5 17-3.804 14.561.274 15.501 13.516 14.98C59 423 59 423 62 426c4.666.673 9.333 1.34 14 2l4 3c7.799 1.616 7.799 1.616 10-4h4c.475-4.32.799-8.659 1-13 1-4 1-4 3-4l.938-6.438C100 397 100 397 103 396c.343-4.333.676-8.666 1-13l3-4 .375-6.75C108 366 108 366 113 366l3-3c4.273-.398 4.273-.398 9.375-.375l5.086-.023C135 363 135 363 140 366c7.342 2.77 7.342 2.77 15 4v2c4.084.928 8.194 1.74 12.313 2.5 12.37 2.288 12.37 2.288 15.687 4.5 9.717 0 8.192-3.315 9-12l2-8v-3h2c.346-5.666.678-11.333 1-17l2-5c1.81-12.914-.322-14.315-13-15l-7-3h-6v-2c-5.869-2.2-10.964-3.688-17-5l-5-2-6-.938c-9.84-1.742-9.84-1.742-12-6.062h-2c1.594-14.594 1.594-14.594 3-16l.875-5.188C136 273 136 273 139 267l1-5.063c1-4.937 1-4.937 4-9.937l.5-5.063C145 242 145 242 148 238c.689-3.996 1.352-7.997 2-12 3.293-12.293 3.293-12.293 8-17v-2c4.982.293 8.51.755 13 3l4.625.375c5.375.625 5.375.625 10.5 2.688 5.24 2.43 5.24 2.43 12.875 1.937v3a497.932 497.932 0 0 0 16 4l5 2c12.88 0 11.25-2.336 14-14 1.606-6.757 3.254-12.593 6-19 .354-4.999.69-9.998 1-15h2c1.423-9.053 1.423-9.053-3-10v-2a1582.704 1582.704 0 0 0-13-3l-2-2c-3.69-.683-7.382-1.361-11.078-2.012-7.402-1.486-14.625-3.546-21.89-5.586-4.325-1.205-8.677-2.313-13.032-3.402-9.64-4.82-3.444-22.995 0-31 13.687-32.68 13.687-32.68-5-51l-6-3a478.77 478.77 0 0 0-13-2l-5-1.125c-4.132-1.053-4.132-1.053-9-.875v-2c-14.83-2.472-14.351 17.567-16 29a897.217 897.217 0 0 1-4 16l-1.625 6.5c-4.487 17.946-9.487 24.595-28.375 16.5l-5-1.5c-5-1.5-5-1.5-12-4.5a1859.46 1859.46 0 0 0-11-2l-3-2-5.125-.375C49.005 114 45.295 112.455 40 110l-8-1-8-4h-2c-.513-11.792 1.417-22.562 4-34v-2h2c2.247-5.899 3.68-11.839 5-18l2-7c2.08-12.18 2.755-16.37-10-19l-8-3c-7.108-2.227-7.108-2.227-15.125-3C-6 18-6 18-11 16c-10.981 0-9.947 3.106-12.063 12.938Z" transform="translate(222 39)"/>
</svg>
