<svg xmlns="http://www.w3.org/2000/svg" viewBox="0 0 408.7 142.54">
  <path fill="var(--dos)" d="m26.02 48.74 25.51 1.8 152.89 24.34 152.61-24.99 25.65-.85-178.28 58.4-178.38-58.7z"></path>
  <path fill="var(--dos)" d="m57.63 79.88 20.75.01 126 40.38 121-40.18 21.59.03-142.6 62.42L57.63 79.88z"></path>
  <path fill="var(--dos)" d="M26.76 6.9h38.51v7.68H35.6v4.6H61v7.68H35.6V39.1h-8.84ZM108.37 16.74c0 4.14-1.65 6.07-5.66 6.3 4.33.51 5.66 3.22 5.66 7v9.06h-8.83V28.61a1.58 1.58 0 0 0-1.79-1.79H77.37V39.1h-8.84V6.9h33.13c4.69 0 6.71 2 6.71 6.67Zm-8.83 1V16c0-1.06-.42-1.43-1.43-1.43H77.37v4.6h20.74c1.01.01 1.43-.36 1.43-1.42ZM112.88 6.9h38.69v7.68h-29.86v4.6h25.53v7.64h-25.53v4.6h29.86v7.68h-38.69ZM155.61 6.9h38.69v7.68h-29.86v4.6H190v7.64h-25.56v4.6h29.86v7.68h-38.69ZM236.62 14.58h-15.55V39.1h-8.83V14.58h-15.6V6.9h40ZM279.72 16.74c0 4.14-1.66 6.07-5.66 6.3 4.33.51 5.66 3.22 5.66 7v9.06h-8.83V28.61a1.58 1.58 0 0 0-1.8-1.79h-20.38V39.1h-8.83V6.9H273c4.7 0 6.72 2 6.72 6.67Zm-8.83 1V16c0-1.06-.42-1.43-1.43-1.43h-20.75v4.6h20.75c1.01.01 1.43-.36 1.43-1.42ZM315.05 39.1V26.82h-22.18V39.1H284V13.8c0-4.65 2.16-6.9 6.95-6.9h25.94c4.74 0 6.95 2.25 6.95 6.9v25.3Zm-20.8-24.52c-1 0-1.38.37-1.38 1.43v3.17h22.18V16c0-1.06-.37-1.43-1.43-1.43ZM328.66 6.9h8.83v32.2h-8.83ZM351.11 16v23.1h-8.84V13.8c0-4.65 2.17-6.9 7-6.9h25.95c4.74 0 6.95 2.25 6.95 6.9v25.3h-8.84V16c0-1.06-.37-1.43-1.42-1.43h-19.42c-1.01.01-1.38.43-1.38 1.43Z"></path>
</svg>